<svg width="48" height="61" viewBox="0 0 48 61" fill="none" xmlns="http://www.w3.org/2000/svg">
<path d="M23.8064 3.16357C20.6349 5.3393 17.3075 7.17238 13.8241 8.66284C12.4086 9.26818 11.072 9.76776 9.81403 10.1616C8.22438 10.6597 6.84537 11.0369 5.67701 11.2933C4.45844 11.5604 3.52089 11.7695 2.86436 11.9206C2.78457 11.9388 2.71337 11.9833 2.66241 12.0467C2.61146 12.1102 2.58375 12.1889 2.58384 12.27C2.60549 20.4397 2.605 27.7609 2.58236 34.2335C2.57793 35.2 2.7433 36.0129 2.83336 37.0248C2.84809 37.1872 2.87775 37.3478 2.92195 37.5044C3.1508 38.3056 3.27925 38.9563 3.52434 39.6099C3.9407 40.7192 4.50962 41.8134 5.23112 42.8925C6.23215 44.3888 7.3011 45.6575 8.43797 46.6986C10.1728 48.2894 11.9933 49.8364 13.9821 51.2343C15.1499 52.056 16.3518 52.9494 17.5979 53.739C18.7215 54.4511 19.8952 55.2026 21.385 56.077C22.4234 56.6862 23.1666 57.1283 23.6144 57.4032C23.8261 57.5328 24.0219 57.5957 24.2021 57.5918C24.2501 57.5909 24.2965 57.575 24.3349 57.5465L24.7528 57.2277C24.7616 57.2209 24.7705 57.215 24.7793 57.2102C26.6643 56.1789 28.252 55.2348 29.5424 54.3779C29.9282 54.1216 30.5188 53.7321 31.3141 53.2097C32.9412 52.1393 34.674 50.8721 36.5127 49.408C37.1328 48.9147 37.8204 48.3245 38.5753 47.6373C39.5035 46.7921 40.1625 46.1693 40.5523 45.7686C41.5105 44.7816 42.2945 43.6207 42.9427 42.7273C43.1454 42.4475 43.3635 42.1063 43.5967 41.7038C44.1534 40.7416 44.3128 40.1027 44.7838 38.7882C44.8478 38.6117 44.9054 38.3958 44.9566 38.1404C45.0821 37.5117 45.2253 37.0701 45.2356 36.4838C45.243 36.0641 45.3434 35.5567 45.3434 35.0055C45.3434 26.1203 45.3394 18.8109 45.3316 13.0772C45.3316 12.9543 45.3714 12.7716 45.4512 12.5288C45.4693 12.4721 45.4672 12.4107 45.4453 12.3548C45.2622 11.8957 44.5933 11.8124 44.081 11.6983C43.3664 11.5404 42.7699 11.4122 42.2916 11.3138C41.509 11.1529 41.1311 11.0169 40.2245 10.7859C39.4371 10.5832 38.5187 10.3093 37.4695 9.96418C36.6308 9.68734 35.7341 9.35006 34.7794 8.95235C31.5479 7.60519 28.4513 5.97437 25.4895 4.05989C24.9875 3.73528 24.5992 3.39606 24.112 3.14456C24.064 3.11985 24.0102 3.10855 23.9563 3.1119C23.9024 3.11526 23.8506 3.13312 23.8064 3.16357Z" stroke="#2E2E2E" stroke-width="2.35325"/>
<path d="M29.5749 30.1595C29.6054 30.101 29.6453 30.0498 29.6945 30.006C32.8256 27.2561 35.1524 25.189 36.6752 23.8048C37.0748 23.4422 37.2874 23.2346 37.313 23.182C37.4606 22.8827 37.4774 22.5971 37.3632 22.3251C36.4005 20.0392 35.183 17.188 33.7104 13.7713C33.6682 13.6734 33.5964 13.5911 33.5052 13.5359C33.0977 13.2922 32.7015 13.3054 32.3167 13.5754C32.0288 13.7787 32.0037 14.2626 32.0908 14.539C32.389 15.4865 32.9619 16.6577 33.3088 17.4809C34.492 20.2863 35.1214 21.7763 35.1972 21.9508C35.3744 22.3641 35.3139 22.678 35.0156 22.8924C34.6514 23.1547 34.2774 23.4788 33.8935 23.8648C33.5244 24.2352 33.1558 24.5686 32.7877 24.8649C31.9973 25.5005 31.2275 26.1945 30.4785 26.9471C30.1049 27.3229 29.7225 27.5583 29.3136 27.9706C29.1827 28.1022 28.8918 28.3581 28.441 28.7382C27.9075 29.1876 27.3592 29.715 26.7962 30.3203C26.6824 30.4421 26.5305 30.5222 26.3651 30.5477C26.1997 30.5732 26.0306 30.5425 25.8852 30.4607L25.8587 30.4461C25.7946 30.4102 25.7394 30.3606 25.6972 30.3007C25.6551 30.2409 25.6269 30.1724 25.6149 30.1002C25.6029 30.0281 25.6073 29.9541 25.6277 29.8836C25.6482 29.8132 25.6842 29.7481 25.7332 29.6931C26.6978 28.5769 27.563 27.4242 28.3288 26.235C28.8426 25.4381 29.2176 24.6281 29.7004 23.7347C30.0784 23.0328 29.9691 22.581 29.3741 21.9888C28.2677 20.8893 27.1525 19.797 26.0285 18.7121C25.6288 18.326 25.2253 17.9142 24.8178 17.4765C24.5697 17.2104 24.3758 17.0574 24.236 17.0174C23.7739 16.8858 23.3827 17.2382 23.0682 17.5584C21.2482 19.4105 19.7019 20.9497 18.4292 22.176C18.3189 22.2822 18.1841 22.5186 18.0246 22.8851C17.9988 22.9457 17.9952 23.013 18.0143 23.0752C18.1324 23.4476 18.3347 23.915 18.6211 24.4774C19.316 25.8431 20.0852 27.0811 20.9288 28.1914C21.0892 28.4019 21.5007 28.9313 22.1631 29.7793C22.2426 29.8811 22.2794 30.0094 22.266 30.1376C22.2525 30.2658 22.1898 30.3841 22.0908 30.468L22.0775 30.4797C21.9783 30.5638 21.8503 30.6071 21.7201 30.6005C21.5898 30.594 21.4672 30.5382 21.3776 30.4446C20.5154 29.5439 19.5129 28.7733 18.6418 27.9136C18.625 27.897 17.8942 27.2332 16.4492 25.9221C16.276 25.7651 15.6879 25.2339 14.6849 24.3283C14.0185 23.7269 13.4225 23.2049 12.8969 22.7623C12.6705 22.5713 12.6149 22.3466 12.73 22.0882C13.4407 20.4993 14.2626 18.5849 15.1957 16.3448C15.4388 15.7609 15.6564 15.2569 15.8483 14.8329C16.0078 14.482 16.1318 13.7655 15.7199 13.5184C15.2563 13.2386 14.8493 13.2674 14.4988 13.6047C14.2065 13.8854 14.0677 14.482 13.8684 14.8402C13.7473 15.0566 13.6115 15.3788 13.4609 15.8067C13.451 15.835 13.2813 16.2151 12.9515 16.9472C12.4303 18.1067 12.076 19.022 11.4249 20.5222C11.1133 21.246 10.8254 22.1292 10.5877 22.6673C10.5681 22.7112 10.5579 22.7587 10.5577 22.807C10.5574 22.8553 10.5671 22.9033 10.5862 22.948C10.6837 23.179 10.791 23.3525 10.9081 23.4685C11.6345 24.1835 12.4156 24.7889 13.2069 25.539C13.8015 26.1024 14.5889 26.8165 15.5693 27.6811C16.2219 28.2562 16.6323 28.6257 16.8006 28.7894C17.2509 29.2252 17.5802 29.462 18.0792 29.9109C18.1688 29.9918 18.22 30.0805 18.2328 30.177C18.2389 30.2192 18.2271 30.2625 18.1997 30.2983C18.1723 30.334 18.1314 30.3597 18.0851 30.37C17.7943 30.4358 17.5226 30.4797 17.2657 30.4724C15.5599 30.4168 14.2764 30.412 13.4151 30.4578C12.7433 30.4929 12.355 30.9651 12.0317 31.3395C11.4657 31.9955 10.6094 32.9342 9.46266 34.1556C8.7141 34.954 8.22096 35.5652 7.3469 36.4966C6.98222 36.8841 6.61458 37.4368 6.99403 37.8959C7.23469 38.1869 7.72044 38.4837 8.09251 38.2C8.33317 38.0173 8.54578 37.8623 8.75396 37.6342C10.4775 35.7411 12.0415 34.0372 13.4461 32.5224C13.6203 32.3333 13.7946 32.2387 13.9688 32.2387C16.5486 32.2319 18.3445 32.229 19.3564 32.2299C19.4686 32.2299 19.6034 32.247 19.7609 32.2811C19.7789 32.2849 19.7958 32.2922 19.8108 32.3026C19.8259 32.3131 19.8386 32.3264 19.8482 32.3419C19.8579 32.3573 19.8643 32.3745 19.867 32.3925C19.8698 32.4104 19.8689 32.4288 19.8643 32.4463C19.7151 33.0341 19.1748 33.2988 18.624 33.676C18.5177 33.7482 18.3115 33.9266 18.0054 34.2112C17.1451 35.0095 16.3616 35.7109 15.6549 36.3153C15.4374 36.5015 15.0166 36.8568 14.3925 37.3812C14.1268 37.6049 13.7429 38.0377 13.6602 38.3316C13.0391 40.561 12.3654 42.8283 11.639 45.1337C11.5179 45.5178 11.4618 45.7873 11.4706 45.9423C11.5312 46.9249 12.8733 46.9731 13.2276 46.1616C13.3556 45.8692 13.4427 45.6372 13.4889 45.4656C13.8935 43.9771 14.3089 42.5832 14.7351 41.2838C14.9905 40.5015 15.1765 39.7265 15.3759 39.0934C15.4376 38.8976 15.5538 38.7237 15.711 38.5919L17.1786 37.3563C17.2126 37.3276 17.255 37.3105 17.2995 37.3076C17.3439 37.3047 17.388 37.3162 17.4252 37.3403C17.5384 37.4134 17.6299 37.5225 17.6998 37.6678C17.9705 38.2302 18.2574 38.7527 18.5606 39.2353C19.915 41.3934 21.4844 43.3879 23.269 45.2185C23.8758 45.8414 24.3689 45.5504 24.8635 45.0357C26.7691 43.0589 28.4119 40.8968 29.7919 38.5495C29.9878 38.2161 30.161 37.8667 30.3116 37.5011C30.3248 37.4692 30.3445 37.4403 30.3695 37.4162C30.3944 37.3921 30.4242 37.3734 30.4569 37.3612C30.4896 37.349 30.5245 37.3436 30.5594 37.3453C30.5944 37.3469 30.6286 37.3557 30.6601 37.371C31.1591 37.6166 31.6242 38.1459 32.0686 38.5276C32.6666 39.0408 32.643 39.6066 32.8807 40.2778C33.0283 40.694 33.3295 41.6059 33.7843 43.0135C33.925 43.4493 34.1932 44.3797 34.5889 45.8048C34.7233 46.2844 34.9979 46.7436 35.5619 46.7026C36.1121 46.6636 36.4237 46.3946 36.4965 45.8955C36.5043 45.8415 36.5008 45.7867 36.4862 45.7347C36.3518 45.2536 36.2898 44.9261 36.1348 44.4421C35.368 42.0509 34.7513 40.0365 34.2848 38.3989C34.1716 38.0012 33.9777 37.6868 33.7031 37.4558C32.7699 36.672 32.1484 36.1705 31.4618 35.5506C30.1635 34.375 29.3662 33.6804 29.07 33.4669C28.9912 33.4104 28.7412 33.2296 28.3199 32.9245C28.2869 32.9014 28.2601 32.8708 28.2417 32.8353L28.0586 32.4961C28.0483 32.4771 28.0421 32.4562 28.0405 32.4347C28.0389 32.4132 28.0419 32.3916 28.0493 32.3713C28.0567 32.351 28.0683 32.3325 28.0834 32.317C28.0985 32.3014 28.1167 32.2892 28.1368 32.2811C28.2077 32.2519 28.2825 32.2377 28.3613 32.2387C30.3151 32.2524 32.1311 32.2528 33.8094 32.2402C34.0441 32.2387 34.3261 32.3104 34.4738 32.4712C36.5251 34.7161 38.1649 36.5185 39.3933 37.8783C39.5223 38.0216 39.7472 38.1752 40.0681 38.3389C40.1343 38.3726 40.2111 38.3795 40.2821 38.3579C41.0026 38.1357 41.4943 37.3783 40.8786 36.7188C39.2398 34.9662 37.6349 33.2184 36.0639 31.4755C35.748 31.126 35.2725 30.5835 34.8842 30.5265C34.5437 30.4768 34.0919 30.4427 33.5288 30.4241C32.7493 30.3988 31.7581 30.412 30.5553 30.4636C30.161 30.4812 29.9662 30.43 29.628 30.2999C29.6146 30.2946 29.6025 30.2867 29.5924 30.2766C29.5823 30.2664 29.5744 30.2543 29.5694 30.2411C29.5644 30.2278 29.5623 30.2137 29.5632 30.1996C29.5642 30.1855 29.5681 30.1719 29.5749 30.1595Z" stroke="#2E2E2E" stroke-width="2.35325"/>
<path d="M23.548 0.162142C23.8713 -0.0586475 24.1651 -0.0498743 24.4678 0.163604C25.6519 0.998023 26.7169 1.7179 27.6628 2.32325C31.3028 4.65007 35.1056 6.46512 39.0714 7.76841C41.6306 8.60965 44.1548 9.21695 46.6441 9.59029C47.4163 9.7058 47.9168 9.60638 47.9168 10.5992C47.9109 24.7677 47.9094 32.3808 47.9124 33.4385C47.9227 36.3745 47.3233 39.5577 46.1052 42.1326C45.0466 44.3756 43.4358 46.3715 41.543 48.2475C39.5684 50.2048 37.1963 52.1447 34.4265 54.0669C31.3417 56.2085 28.1028 58.2152 24.7099 60.0867C24.4196 60.2466 24.1912 60.3451 24.0248 60.3821C23.9649 60.3955 23.9027 60.393 23.8447 60.3748C23.5937 60.2968 23.358 60.1954 23.1375 60.0707C17.8518 57.0673 12.7226 53.7584 8.13231 49.8559C6.43341 48.4112 4.93481 46.8257 3.63651 45.0994C1.88938 42.7774 0.775147 40.1967 0.293824 37.3571C0.166849 36.6056 0.149131 35.8131 0.0620206 35.0074C0.0364287 34.7696 0.0236325 34.4547 0.0236325 34.0628C0.0265854 24.4553 0.0187116 16.6083 9.82826e-06 10.5217C-0.00294308 9.57859 0.659984 9.65901 1.3421 9.55666C7.07369 8.69105 12.4106 6.8526 17.3528 4.04131C19.4474 2.84914 21.5124 1.55609 23.548 0.162142ZM23.8063 3.164C20.6349 5.33973 17.3075 7.17282 13.824 8.66327C12.4086 9.26861 11.0719 9.76819 9.81399 10.162C8.22434 10.6601 6.84534 11.0374 5.67697 11.2937C4.4584 11.5608 3.52086 11.7699 2.86433 11.921C2.78453 11.9392 2.71333 11.9837 2.66238 12.0472C2.61142 12.1107 2.58372 12.1894 2.5838 12.2705C2.60546 20.4402 2.60496 27.7613 2.58233 34.2339C2.5779 35.2004 2.74326 36.0134 2.83332 37.0252C2.84806 37.1877 2.87771 37.3482 2.92191 37.5048C3.15076 38.3061 3.27921 38.9568 3.5243 39.6103C3.94066 40.7197 4.50959 41.8139 5.23108 42.8929C6.23212 44.3892 7.30107 45.6579 8.43794 46.699C10.1728 48.2899 11.9932 49.8368 13.982 51.2347C15.1499 52.0564 16.3517 52.9498 17.5979 53.7394C18.7214 54.4515 19.8952 55.2031 21.385 56.0774C22.4234 56.6867 23.1665 57.1287 23.6144 57.4036C23.826 57.5333 24.0219 57.5962 24.202 57.5923C24.25 57.5913 24.2965 57.5755 24.3349 57.5469L24.7808 57.3086C24.7896 57.3018 24.7985 57.2959 24.8074 57.2911C26.6923 56.2597 28.2519 55.2352 29.5424 54.3784C29.9282 54.122 30.5188 53.7326 31.3141 53.2101C32.9411 52.1398 34.674 50.8726 36.5127 49.4084C37.1328 48.9152 37.8203 48.3249 38.5753 47.6377C39.5035 46.7926 40.1625 46.1697 40.5523 45.7691C41.5105 44.7821 42.2945 43.6211 42.9426 42.7277C43.1454 42.448 43.3634 42.1068 43.5967 41.7042C44.1533 40.7421 44.3128 40.1031 44.7838 38.7886C44.8478 38.6122 44.9053 38.3962 44.9565 38.1409C45.082 37.5121 45.2252 37.0705 45.2356 36.4842C45.2429 36.0646 45.3433 35.5572 45.3433 35.0059C45.3433 26.1207 45.3394 18.8113 45.3315 13.0776C45.3315 12.9548 45.3714 12.772 45.4511 12.5293C45.4693 12.4725 45.4672 12.4111 45.4452 12.3553C45.2621 11.8962 44.5933 11.8128 44.081 11.6988C43.3664 11.5408 42.7699 11.4127 42.2915 11.3142C41.509 11.1534 41.131 11.0174 40.2245 10.7864C39.437 10.5836 38.5187 10.3097 37.4694 9.96461C36.6308 9.68777 35.7341 9.35049 34.7793 8.95278C31.5479 7.60562 28.4513 5.9748 25.4895 4.06032C24.9875 3.73571 24.5992 3.39649 24.112 3.14499C24.064 3.12028 24.0101 3.10899 23.9563 3.11234C23.9024 3.11569 23.8505 3.13355 23.8063 3.164Z" fill="#D4D4D4"/>
<path d="M29.5749 30.1605C29.5681 30.1728 29.5642 30.1865 29.5632 30.2006C29.5623 30.2146 29.5644 30.2288 29.5694 30.242C29.5744 30.2553 29.5823 30.2674 29.5924 30.2775C29.6025 30.2877 29.6146 30.2956 29.628 30.3008C29.9662 30.431 30.161 30.4821 30.5553 30.4646C31.7581 30.4129 32.7493 30.3998 33.5288 30.4251C34.0919 30.4436 34.5437 30.4778 34.8842 30.5275C35.2725 30.5845 35.748 31.127 36.0639 31.4764C37.6349 33.2193 39.2398 34.9671 40.8786 36.7198C41.4943 37.3793 41.0026 38.1367 40.2821 38.3589C40.2111 38.3804 40.1343 38.3736 40.0681 38.3399C39.7472 38.1761 39.5223 38.0226 39.3933 37.8793C38.1649 36.5195 36.5251 34.7171 34.4738 32.4722C34.3261 32.3113 34.0441 32.2397 33.8094 32.2411C32.1311 32.2538 30.3151 32.2533 28.3613 32.2397C28.2825 32.2387 28.2077 32.2528 28.1368 32.2821C28.1167 32.2902 28.0985 32.3024 28.0834 32.318C28.0683 32.3335 28.0567 32.352 28.0493 32.3723C28.0419 32.3926 28.0389 32.4141 28.0405 32.4356C28.0421 32.4571 28.0483 32.478 28.0586 32.497L28.2417 32.8363C28.2601 32.8718 28.2869 32.9024 28.3199 32.9255C28.7412 33.2306 28.9912 33.4114 29.07 33.4679C29.3662 33.6814 30.1635 34.3759 31.4618 35.5515C32.1484 36.1715 32.7699 36.673 33.7031 37.4568C33.9777 37.6878 34.1716 38.0021 34.2848 38.3999C34.7513 40.0375 35.368 42.0519 36.1348 44.4431C36.2898 44.927 36.3518 45.2546 36.4862 45.7356C36.5008 45.7877 36.5043 45.8425 36.4965 45.8965C36.4237 46.3956 36.1121 46.6646 35.5619 46.7036C34.9979 46.7445 34.7233 46.2854 34.5889 45.8058C34.1932 44.3807 33.925 43.4502 33.7843 43.0145C33.3295 41.6069 33.0283 40.695 32.8807 40.2788C32.643 39.6076 32.6666 39.0418 32.0686 38.5285C31.6242 38.1469 31.1591 37.6176 30.6601 37.3719C30.6286 37.3567 30.5944 37.3479 30.5594 37.3462C30.5245 37.3446 30.4896 37.35 30.4569 37.3622C30.4242 37.3744 30.3944 37.3931 30.3695 37.4172C30.3445 37.4412 30.3248 37.4701 30.3116 37.5021C30.161 37.8676 29.9878 38.2171 29.7919 38.5505C28.4119 40.8978 26.7691 43.0598 24.8635 45.0367C24.3689 45.5514 23.8758 45.8424 23.269 45.2195C21.4844 43.3888 19.915 41.3944 18.5606 39.2362C18.2574 38.7537 17.9705 38.2312 17.6998 37.6688C17.6299 37.5235 17.5384 37.4144 17.4252 37.3412C17.388 37.3171 17.3439 37.3057 17.2995 37.3086C17.255 37.3115 17.2126 37.3286 17.1786 37.3573L15.711 38.5929C15.5538 38.7246 15.4376 38.8986 15.3759 39.0944C15.1765 39.7275 14.9905 40.5025 14.7351 41.2847C14.3089 42.5841 13.8935 43.9781 13.4889 45.4666C13.4427 45.6382 13.3556 45.8701 13.2276 46.1626C12.8733 46.9741 11.5312 46.9258 11.4706 45.9433C11.4618 45.7883 11.5179 45.5187 11.639 45.1347C12.3654 42.8293 13.0391 40.5619 13.6602 38.3326C13.7429 38.0387 14.1268 37.6059 14.3925 37.3822C15.0166 36.8577 15.4374 36.5024 15.6549 36.3163C16.3616 35.7119 17.1451 35.0105 18.0054 34.2122C18.3115 33.9275 18.5177 33.7491 18.624 33.677C19.1748 33.2998 19.7151 33.0351 19.8643 32.4473C19.8689 32.4297 19.8698 32.4114 19.867 32.3935C19.8643 32.3755 19.8579 32.3583 19.8482 32.3428C19.8386 32.3274 19.8259 32.3141 19.8108 32.3036C19.7958 32.2932 19.7789 32.2859 19.7609 32.2821C19.6034 32.248 19.4686 32.2309 19.3564 32.2309C18.3445 32.2299 16.5486 32.2329 13.9688 32.2397C13.7946 32.2397 13.6203 32.3342 13.4461 32.5234C12.0415 34.0382 10.4775 35.7421 8.75396 37.6351C8.54578 37.8632 8.33317 38.0182 8.09251 38.201C7.72044 38.4847 7.23469 38.1878 6.99403 37.8969C6.61458 37.4377 6.98222 36.885 7.3469 36.4976C8.22096 35.5662 8.7141 34.955 9.46266 34.1566C10.6094 32.9352 11.4657 31.9965 12.0317 31.3404C12.355 30.9661 12.7433 30.4938 13.4151 30.4587C14.2764 30.4129 15.5599 30.4178 17.2657 30.4734C17.5226 30.4807 17.7943 30.4368 18.0851 30.371C18.1314 30.3606 18.1723 30.335 18.1997 30.2992C18.2271 30.2635 18.2389 30.2202 18.2328 30.178C18.22 30.0815 18.1688 29.9928 18.0792 29.9119C17.5802 29.463 17.2509 29.2261 16.8006 28.7904C16.6323 28.6266 16.2219 28.2572 15.5693 27.6821C14.5889 26.8174 13.8015 26.1034 13.2069 25.54C12.4156 24.7899 11.6345 24.1845 10.9081 23.4695C10.791 23.3535 10.6837 23.18 10.5862 22.949C10.5671 22.9042 10.5574 22.8563 10.5577 22.808C10.5579 22.7597 10.5681 22.7121 10.5877 22.6682C10.8254 22.1302 11.1133 21.247 11.4249 20.5232C12.076 19.023 12.4303 18.1077 12.9515 16.9482C13.2813 16.2161 13.451 15.836 13.4609 15.8077C13.6115 15.3798 13.7473 15.0576 13.8684 14.8412C14.0677 14.4829 14.2065 13.8864 14.4988 13.6056C14.8493 13.2684 15.2563 13.2396 15.7199 13.5194C16.1318 13.7665 16.0078 14.4829 15.8483 14.8339C15.6564 15.2579 15.4388 15.7619 15.1957 16.3458C14.2626 18.5858 13.4407 20.5003 12.73 22.0892C12.6149 22.3475 12.6705 22.5722 12.8969 22.7633C13.4225 23.2058 14.0185 23.7278 14.6849 24.3293C15.6879 25.2349 16.276 25.7661 16.4492 25.9231C17.8942 27.2342 18.625 27.898 18.6418 27.9146C19.5129 28.7743 20.5154 29.5449 21.3776 30.4456C21.4672 30.5392 21.5898 30.595 21.7201 30.6015C21.8503 30.608 21.9783 30.5648 22.0775 30.4807L22.0908 30.469C22.1898 30.385 22.2525 30.2667 22.266 30.1386C22.2794 30.0104 22.2426 29.8821 22.1631 29.7803C21.5007 28.9322 21.0892 28.4029 20.9288 28.1924C20.0852 27.0821 19.316 25.8441 18.6211 24.4784C18.3347 23.916 18.1324 23.4486 18.0143 23.0762C17.9952 23.0139 17.9988 22.9467 18.0246 22.8861C18.1841 22.5196 18.3189 22.2832 18.4292 22.1769C19.7019 20.9507 21.2482 19.4115 23.0682 17.5594C23.3827 17.2392 23.7739 16.8868 24.236 17.0184C24.3758 17.0583 24.5697 17.2114 24.8178 17.4775C25.2253 17.9152 25.6288 18.327 26.0285 18.713C27.1525 19.798 28.2677 20.8902 29.3741 21.9898C29.9691 22.582 30.0784 23.0338 29.7004 23.7356C29.2176 24.629 28.8426 25.4391 28.3288 26.236C27.563 27.4252 26.6978 28.5779 25.7332 29.694C25.6842 29.7491 25.6482 29.8142 25.6277 29.8846C25.6073 29.9551 25.6029 30.0291 25.6149 30.1012C25.6269 30.1734 25.6551 30.2419 25.6972 30.3017C25.7394 30.3615 25.7946 30.4112 25.8587 30.4471L25.8852 30.4617C26.0306 30.5435 26.1997 30.5742 26.3651 30.5487C26.5305 30.5232 26.6824 30.4431 26.7962 30.3213C27.3592 29.716 27.9075 29.1886 28.441 28.7392C28.8918 28.3591 29.1827 28.1032 29.3136 27.9716C29.7225 27.5592 30.1049 27.3238 30.4785 26.948C31.2275 26.1955 31.9973 25.5015 32.7877 24.8659C33.1558 24.5696 33.5244 24.2362 33.8935 23.8658C34.2774 23.4798 34.6514 23.1556 35.0156 22.8934C35.3139 22.679 35.3744 22.3651 35.1972 21.9518C35.1214 21.7773 34.492 20.2873 33.3088 17.4819C32.9619 16.6587 32.389 15.4875 32.0908 14.54C32.0037 14.2636 32.0288 13.7796 32.3167 13.5764C32.7015 13.3064 33.0977 13.2932 33.5052 13.5369C33.5964 13.592 33.6682 13.6743 33.7104 13.7723C35.183 17.189 36.4005 20.0402 37.3632 22.3261C37.4774 22.5981 37.4606 22.8837 37.313 23.1829C37.2874 23.2356 37.0748 23.4432 36.6752 23.8058C35.1524 25.19 32.8256 27.2571 29.6945 30.0069C29.6453 30.0508 29.6054 30.102 29.5749 30.1605Z" fill="#D4D4D4"/>
</svg>
