<svg width="1728" height="1117" viewBox="0 0 1728 1117" fill="none" xmlns="http://www.w3.org/2000/svg">
<g clip-path="url(#clip0_102_3)">
<rect width="1728" height="1117" fill="#252525"/>
<path d="M50.7822 -46.1328V0.137695L10.7109 23.2734L-29.3604 0.137695V-46.1328L10.7109 -69.2686L50.7822 -46.1328Z" stroke="#232323" stroke-width="3"/>
<path d="M132.018 -46.1328V0.137695L91.9463 23.2734L51.875 0.137695V-46.1328L91.9463 -69.2686L132.018 -46.1328Z" stroke="#232323" stroke-width="3"/>
<path d="M212.726 -46.1328V0.137695L172.654 23.2734L132.583 0.137695V-46.1328L172.654 -69.2686L212.726 -46.1328Z" stroke="#232323" stroke-width="3"/>
<path d="M9.78223 22.8672V69.1377L-30.2891 92.2734L-70.3604 69.1377V22.8672L-30.2891 -0.268555L9.78223 22.8672Z" stroke="#232323" stroke-width="3"/>
<path d="M91.0176 22.8672V69.1377L50.9463 92.2734L10.875 69.1377V22.8672L50.9463 -0.268555L91.0176 22.8672Z" stroke="#232323" stroke-width="3"/>
<path d="M171.726 22.8672V69.1377L131.654 92.2734L91.583 69.1377V22.8672L131.654 -0.268555L171.726 22.8672Z" stroke="#232323" stroke-width="3"/>
<path d="M50.7822 91.8672V138.138L10.7109 161.273L-29.3604 138.138V91.8672L10.7109 68.7314L50.7822 91.8672Z" stroke="#232323" stroke-width="3"/>
<path d="M132.018 91.8672V138.138L91.9463 161.273L51.875 138.138V91.8672L91.9463 68.7314L132.018 91.8672Z" stroke="#232323" stroke-width="3"/>
<path d="M212.726 91.8672V138.138L172.654 161.273L132.583 138.138V91.8672L172.654 68.7314L212.726 91.8672Z" stroke="#232323" stroke-width="3"/>
<path d="M9.78223 160.867V207.138L-30.2891 230.273L-70.3604 207.138V160.867L-30.2891 137.731L9.78223 160.867Z" stroke="#232323" stroke-width="3"/>
<path d="M91.0176 160.867V207.138L50.9463 230.273L10.875 207.138V160.867L50.9463 137.731L91.0176 160.867Z" stroke="#232323" stroke-width="3"/>
<path d="M171.726 160.867V207.138L131.654 230.273L91.583 207.138V160.867L131.654 137.731L171.726 160.867Z" stroke="#232323" stroke-width="3"/>
<path d="M50.7822 229.867V276.138L10.7109 299.273L-29.3604 276.138V229.867L10.7109 206.731L50.7822 229.867Z" stroke="#232323" stroke-width="3"/>
<path d="M132.018 229.867V276.138L91.9463 299.273L51.875 276.138V229.867L91.9463 206.731L132.018 229.867Z" stroke="#232323" stroke-width="3"/>
<path d="M212.726 229.867V276.138L172.654 299.273L132.583 276.138V229.867L172.654 206.731L212.726 229.867Z" stroke="#232323" stroke-width="3"/>
<path d="M9.78223 298.867V345.138L-30.2891 368.273L-70.3604 345.138V298.867L-30.2891 275.731L9.78223 298.867Z" stroke="#232323" stroke-width="3"/>
<path d="M91.0176 298.867V345.138L50.9463 368.273L10.875 345.138V298.867L50.9463 275.731L91.0176 298.867Z" stroke="#232323" stroke-width="3"/>
<path d="M171.726 298.867V345.138L131.654 368.273L91.583 345.138V298.867L131.654 275.731L171.726 298.867Z" stroke="#232323" stroke-width="3"/>
<path d="M50.7822 367.867V414.138L10.7109 437.273L-29.3604 414.138V367.867L10.7109 344.731L50.7822 367.867Z" stroke="#232323" stroke-width="3"/>
<path d="M132.018 367.867V414.138L91.9463 437.273L51.875 414.138V367.867L91.9463 344.731L132.018 367.867Z" stroke="#232323" stroke-width="3"/>
<path d="M212.726 367.867V414.138L172.654 437.273L132.583 414.138V367.867L172.654 344.731L212.726 367.867Z" stroke="#232323" stroke-width="3"/>
<path d="M9.78223 436.867V483.138L-30.2891 506.273L-70.3604 483.138V436.867L-30.2891 413.731L9.78223 436.867Z" stroke="#232323" stroke-width="3"/>
<path d="M91.0176 436.867V483.138L50.9463 506.273L10.875 483.138V436.867L50.9463 413.731L91.0176 436.867Z" stroke="#232323" stroke-width="3"/>
<path d="M171.726 436.867V483.138L131.654 506.273L91.583 483.138V436.867L131.654 413.731L171.726 436.867Z" stroke="#232323" stroke-width="3"/>
<path d="M374.782 -46.1328V0.137695L334.711 23.2734L294.64 0.137695V-46.1328L334.711 -69.2686L374.782 -46.1328Z" stroke="#232323" stroke-width="3"/>
<path d="M294.074 -46.1328V0.137695L254.003 23.2734L213.932 0.137695V-46.1328L254.003 -69.2686L294.074 -46.1328Z" stroke="#232323" stroke-width="3"/>
<path d="M456.018 -46.1328V0.137695L415.946 23.2734L375.875 0.137695V-46.1328L415.946 -69.2686L456.018 -46.1328Z" stroke="#232323" stroke-width="3"/>
<path d="M536.726 -46.1328V0.137695L496.654 23.2734L456.583 0.137695V-46.1328L496.654 -69.2686L536.726 -46.1328Z" stroke="#232323" stroke-width="3"/>
<path d="M333.782 22.8672V69.1377L293.711 92.2734L253.64 69.1377V22.8672L293.711 -0.268555L333.782 22.8672Z" stroke="#232323" stroke-width="3"/>
<path d="M253.074 22.8672V69.1377L213.003 92.2734L172.932 69.1377V22.8672L213.003 -0.268555L253.074 22.8672Z" stroke="#232323" stroke-width="3"/>
<path d="M415.018 22.8672V69.1377L374.946 92.2734L334.875 69.1377V22.8672L374.946 -0.268555L415.018 22.8672Z" stroke="#232323" stroke-width="3"/>
<path d="M495.726 22.8672V69.1377L455.654 92.2734L415.583 69.1377V22.8672L455.654 -0.268555L495.726 22.8672Z" stroke="#232323" stroke-width="3"/>
<path d="M374.782 91.8672V138.138L334.711 161.273L294.64 138.138V91.8672L334.711 68.7314L374.782 91.8672Z" stroke="#232323" stroke-width="3"/>
<path d="M294.074 91.8672V138.138L254.003 161.273L213.932 138.138V91.8672L254.003 68.7314L294.074 91.8672Z" stroke="#232323" stroke-width="3"/>
<path d="M456.018 91.8672V138.138L415.946 161.273L375.875 138.138V91.8672L415.946 68.7314L456.018 91.8672Z" stroke="#232323" stroke-width="3"/>
<path d="M536.726 91.8672V138.138L496.654 161.273L456.583 138.138V91.8672L496.654 68.7314L536.726 91.8672Z" stroke="#232323" stroke-width="3"/>
<path d="M333.782 160.867V207.138L293.711 230.273L253.64 207.138V160.867L293.711 137.731L333.782 160.867Z" stroke="#232323" stroke-width="3"/>
<path d="M253.074 160.867V207.138L213.003 230.273L172.932 207.138V160.867L213.003 137.731L253.074 160.867Z" stroke="#232323" stroke-width="3"/>
<path d="M415.018 160.867V207.138L374.946 230.273L334.875 207.138V160.867L374.946 137.731L415.018 160.867Z" stroke="#232323" stroke-width="3"/>
<path d="M495.726 160.867V207.138L455.654 230.273L415.583 207.138V160.867L455.654 137.731L495.726 160.867Z" stroke="#232323" stroke-width="3"/>
<path d="M698.782 -46.1328V0.137695L658.711 23.2734L618.64 0.137695V-46.1328L658.711 -69.2686L698.782 -46.1328Z" stroke="#232323" stroke-width="3"/>
<path d="M618.074 -46.1328V0.137695L578.003 23.2734L537.932 0.137695V-46.1328L578.003 -69.2686L618.074 -46.1328Z" stroke="#232323" stroke-width="3"/>
<path d="M780.018 -46.1328V0.137695L739.946 23.2734L699.875 0.137695V-46.1328L739.946 -69.2686L780.018 -46.1328Z" stroke="#232323" stroke-width="3"/>
<path d="M860.726 -46.1328V0.137695L820.654 23.2734L780.583 0.137695V-46.1328L820.654 -69.2686L860.726 -46.1328Z" stroke="#232323" stroke-width="3"/>
<path d="M657.782 22.8672V69.1377L617.711 92.2734L577.64 69.1377V22.8672L617.711 -0.268555L657.782 22.8672Z" stroke="#232323" stroke-width="3"/>
<path d="M577.074 22.8672V69.1377L537.003 92.2734L496.932 69.1377V22.8672L537.003 -0.268555L577.074 22.8672Z" stroke="#232323" stroke-width="3"/>
<path d="M739.018 22.8672V69.1377L698.946 92.2734L658.875 69.1377V22.8672L698.946 -0.268555L739.018 22.8672Z" stroke="#232323" stroke-width="3"/>
<path d="M819.726 22.8672V69.1377L779.654 92.2734L739.583 69.1377V22.8672L779.654 -0.268555L819.726 22.8672Z" stroke="#232323" stroke-width="3"/>
<path d="M698.782 91.8672V138.138L658.711 161.273L618.64 138.138V91.8672L658.711 68.7314L698.782 91.8672Z" stroke="#232323" stroke-width="3"/>
<path d="M618.074 91.8672V138.138L578.003 161.273L537.932 138.138V91.8672L578.003 68.7314L618.074 91.8672Z" stroke="#232323" stroke-width="3"/>
<path d="M780.018 91.8672V138.138L739.946 161.273L699.875 138.138V91.8672L739.946 68.7314L780.018 91.8672Z" stroke="#232323" stroke-width="3"/>
<path d="M860.726 91.8672V138.138L820.654 161.273L780.583 138.138V91.8672L820.654 68.7314L860.726 91.8672Z" stroke="#232323" stroke-width="3"/>
<path d="M657.782 160.867V207.138L617.711 230.273L577.64 207.138V160.867L617.711 137.731L657.782 160.867Z" stroke="#232323" stroke-width="3"/>
<path d="M577.074 160.867V207.138L537.003 230.273L496.932 207.138V160.867L537.003 137.731L577.074 160.867Z" stroke="#232323" stroke-width="3"/>
<path d="M739.018 160.867V207.138L698.946 230.273L658.875 207.138V160.867L698.946 137.731L739.018 160.867Z" stroke="#232323" stroke-width="3"/>
<path d="M819.726 160.867V207.138L779.654 230.273L739.583 207.138V160.867L779.654 137.731L819.726 160.867Z" stroke="#232323" stroke-width="3"/>
<path d="M374.782 229.867V276.138L334.711 299.273L294.64 276.138V229.867L334.711 206.731L374.782 229.867Z" stroke="#232323" stroke-width="3"/>
<path d="M294.074 229.867V276.138L254.003 299.273L213.932 276.138V229.867L254.003 206.731L294.074 229.867Z" stroke="#232323" stroke-width="3"/>
<path d="M456.018 229.867V276.138L415.946 299.273L375.875 276.138V229.867L415.946 206.731L456.018 229.867Z" stroke="#232323" stroke-width="3"/>
<path d="M536.726 229.867V276.138L496.654 299.273L456.583 276.138V229.867L496.654 206.731L536.726 229.867Z" stroke="#232323" stroke-width="3"/>
<path d="M333.782 298.867V345.138L293.711 368.273L253.64 345.138V298.867L293.711 275.731L333.782 298.867Z" stroke="#232323" stroke-width="3"/>
<path d="M253.074 298.867V345.138L213.003 368.273L172.932 345.138V298.867L213.003 275.731L253.074 298.867Z" stroke="#232323" stroke-width="3"/>
<path d="M415.018 298.867V345.138L374.946 368.273L334.875 345.138V298.867L374.946 275.731L415.018 298.867Z" stroke="#232323" stroke-width="3"/>
<path d="M495.726 298.867V345.138L455.654 368.273L415.583 345.138V298.867L455.654 275.731L495.726 298.867Z" stroke="#232323" stroke-width="3"/>
<path d="M374.782 367.867V414.138L334.711 437.273L294.64 414.138V367.867L334.711 344.731L374.782 367.867Z" stroke="#232323" stroke-width="3"/>
<path d="M294.074 367.867V414.138L254.003 437.273L213.932 414.138V367.867L254.003 344.731L294.074 367.867Z" stroke="#232323" stroke-width="3"/>
<path d="M456.018 367.867V414.138L415.946 437.273L375.875 414.138V367.867L415.946 344.731L456.018 367.867Z" stroke="#232323" stroke-width="3"/>
<path d="M536.726 367.867V414.138L496.654 437.273L456.583 414.138V367.867L496.654 344.731L536.726 367.867Z" stroke="#232323" stroke-width="3"/>
<path d="M333.782 436.867V483.138L293.711 506.273L253.64 483.138V436.867L293.711 413.731L333.782 436.867Z" stroke="#232323" stroke-width="3"/>
<path d="M253.074 436.867V483.138L213.003 506.273L172.932 483.138V436.867L213.003 413.731L253.074 436.867Z" stroke="#232323" stroke-width="3"/>
<path d="M415.018 436.867V483.138L374.946 506.273L334.875 483.138V436.867L374.946 413.731L415.018 436.867Z" stroke="#232323" stroke-width="3"/>
<path d="M495.726 436.867V483.138L455.654 506.273L415.583 483.138V436.867L455.654 413.731L495.726 436.867Z" stroke="#232323" stroke-width="3"/>
<path d="M698.782 229.867V276.138L658.711 299.273L618.64 276.138V229.867L658.711 206.731L698.782 229.867Z" stroke="#232323" stroke-width="3"/>
<path d="M618.074 229.867V276.138L578.003 299.273L537.932 276.138V229.867L578.003 206.731L618.074 229.867Z" stroke="#232323" stroke-width="3"/>
<path d="M780.018 229.867V276.138L739.946 299.273L699.875 276.138V229.867L739.946 206.731L780.018 229.867Z" stroke="#232323" stroke-width="3"/>
<path d="M860.726 229.867V276.138L820.654 299.273L780.583 276.138V229.867L820.654 206.731L860.726 229.867Z" stroke="#232323" stroke-width="3"/>
<path d="M657.782 298.867V345.138L617.711 368.273L577.64 345.138V298.867L617.711 275.731L657.782 298.867Z" stroke="#232323" stroke-width="3"/>
<path d="M577.074 298.867V345.138L537.003 368.273L496.932 345.138V298.867L537.003 275.731L577.074 298.867Z" stroke="#232323" stroke-width="3"/>
<path d="M739.018 298.867V345.138L698.946 368.273L658.875 345.138V298.867L698.946 275.731L739.018 298.867Z" stroke="#232323" stroke-width="3"/>
<path d="M819.726 298.867V345.138L779.654 368.273L739.583 345.138V298.867L779.654 275.731L819.726 298.867Z" stroke="#232323" stroke-width="3"/>
<path d="M698.782 367.867V414.138L658.711 437.273L618.64 414.138V367.867L658.711 344.731L698.782 367.867Z" stroke="#232323" stroke-width="3"/>
<path d="M618.074 367.867V414.138L578.003 437.273L537.932 414.138V367.867L578.003 344.731L618.074 367.867Z" stroke="#232323" stroke-width="3"/>
<path d="M780.018 367.867V414.138L739.946 437.273L699.875 414.138V367.867L739.946 344.731L780.018 367.867Z" stroke="#232323" stroke-width="3"/>
<path d="M860.726 367.867V414.138L820.654 437.273L780.583 414.138V367.867L820.654 344.731L860.726 367.867Z" stroke="#232323" stroke-width="3"/>
<path d="M657.782 436.867V483.138L617.711 506.273L577.64 483.138V436.867L617.711 413.731L657.782 436.867Z" stroke="#232323" stroke-width="3"/>
<path d="M577.074 436.867V483.138L537.003 506.273L496.932 483.138V436.867L537.003 413.731L577.074 436.867Z" stroke="#232323" stroke-width="3"/>
<path d="M739.018 436.867V483.138L698.946 506.273L658.875 483.138V436.867L698.946 413.731L739.018 436.867Z" stroke="#232323" stroke-width="3"/>
<path d="M819.726 436.867V483.138L779.654 506.273L739.583 483.138V436.867L779.654 413.731L819.726 436.867Z" stroke="#232323" stroke-width="3"/>
<path d="M50.7822 505.867V552.138L10.7109 575.273L-29.3604 552.138V505.867L10.7109 482.731L50.7822 505.867Z" stroke="#232323" stroke-width="3"/>
<path d="M132.018 505.867V552.138L91.9463 575.273L51.875 552.138V505.867L91.9463 482.731L132.018 505.867Z" stroke="#232323" stroke-width="3"/>
<path d="M212.726 505.867V552.138L172.654 575.273L132.583 552.138V505.867L172.654 482.731L212.726 505.867Z" stroke="#232323" stroke-width="3"/>
<path d="M9.78223 574.867V621.138L-30.2891 644.273L-70.3604 621.138V574.867L-30.2891 551.731L9.78223 574.867Z" stroke="#232323" stroke-width="3"/>
<path d="M91.0176 574.867V621.138L50.9463 644.273L10.875 621.138V574.867L50.9463 551.731L91.0176 574.867Z" stroke="#232323" stroke-width="3"/>
<path d="M171.726 574.867V621.138L131.654 644.273L91.583 621.138V574.867L131.654 551.731L171.726 574.867Z" stroke="#232323" stroke-width="3"/>
<path d="M50.7822 643.867V690.138L10.7109 713.273L-29.3604 690.138V643.867L10.7109 620.731L50.7822 643.867Z" stroke="#232323" stroke-width="3"/>
<path d="M132.018 643.867V690.138L91.9463 713.273L51.875 690.138V643.867L91.9463 620.731L132.018 643.867Z" stroke="#232323" stroke-width="3"/>
<path d="M212.726 643.867V690.138L172.654 713.273L132.583 690.138V643.867L172.654 620.731L212.726 643.867Z" stroke="#232323" stroke-width="3"/>
<path d="M9.78223 712.867V759.138L-30.2891 782.273L-70.3604 759.138V712.867L-30.2891 689.731L9.78223 712.867Z" stroke="#232323" stroke-width="3"/>
<path d="M91.0176 712.867V759.138L50.9463 782.273L10.875 759.138V712.867L50.9463 689.731L91.0176 712.867Z" stroke="#232323" stroke-width="3"/>
<path d="M171.726 712.867V759.138L131.654 782.273L91.583 759.138V712.867L131.654 689.731L171.726 712.867Z" stroke="#232323" stroke-width="3"/>
<path d="M50.7822 781.867V828.138L10.7109 851.273L-29.3604 828.138V781.867L10.7109 758.731L50.7822 781.867Z" stroke="#232323" stroke-width="3"/>
<path d="M132.018 781.867V828.138L91.9463 851.273L51.875 828.138V781.867L91.9463 758.731L132.018 781.867Z" stroke="#232323" stroke-width="3"/>
<path d="M212.726 781.867V828.138L172.654 851.273L132.583 828.138V781.867L172.654 758.731L212.726 781.867Z" stroke="#232323" stroke-width="3"/>
<path d="M9.78223 850.867V897.138L-30.2891 920.273L-70.3604 897.138V850.867L-30.2891 827.731L9.78223 850.867Z" stroke="#232323" stroke-width="3"/>
<path d="M91.0176 850.867V897.138L50.9463 920.273L10.875 897.138V850.867L50.9463 827.731L91.0176 850.867Z" stroke="#232323" stroke-width="3"/>
<path d="M171.726 850.867V897.138L131.654 920.273L91.583 897.138V850.867L131.654 827.731L171.726 850.867Z" stroke="#232323" stroke-width="3"/>
<path d="M50.7822 919.867V966.138L10.7109 989.273L-29.3604 966.138V919.867L10.7109 896.731L50.7822 919.867Z" stroke="#232323" stroke-width="3"/>
<path d="M132.018 919.867V966.138L91.9463 989.273L51.875 966.138V919.867L91.9463 896.731L132.018 919.867Z" stroke="#232323" stroke-width="3"/>
<path d="M212.726 919.867V966.138L172.654 989.273L132.583 966.138V919.867L172.654 896.731L212.726 919.867Z" stroke="#232323" stroke-width="3"/>
<path d="M9.78223 988.867V1035.14L-30.2891 1058.27L-70.3604 1035.14V988.867L-30.2891 965.731L9.78223 988.867Z" stroke="#232323" stroke-width="3"/>
<path d="M91.0176 988.867V1035.14L50.9463 1058.27L10.875 1035.14V988.867L50.9463 965.731L91.0176 988.867Z" stroke="#232323" stroke-width="3"/>
<path d="M171.726 988.867V1035.14L131.654 1058.27L91.583 1035.14V988.867L131.654 965.731L171.726 988.867Z" stroke="#232323" stroke-width="3"/>
<path d="M374.782 505.867V552.138L334.711 575.273L294.64 552.138V505.867L334.711 482.731L374.782 505.867Z" stroke="#232323" stroke-width="3"/>
<path d="M294.074 505.867V552.138L254.003 575.273L213.932 552.138V505.867L254.003 482.731L294.074 505.867Z" stroke="#232323" stroke-width="3"/>
<path d="M456.018 505.867V552.138L415.946 575.273L375.875 552.138V505.867L415.946 482.731L456.018 505.867Z" stroke="#232323" stroke-width="3"/>
<path d="M536.726 505.867V552.138L496.654 575.273L456.583 552.138V505.867L496.654 482.731L536.726 505.867Z" stroke="#232323" stroke-width="3"/>
<path d="M333.782 574.867V621.138L293.711 644.273L253.64 621.138V574.867L293.711 551.731L333.782 574.867Z" stroke="#232323" stroke-width="3"/>
<path d="M253.074 574.867V621.138L213.003 644.273L172.932 621.138V574.867L213.003 551.731L253.074 574.867Z" stroke="#232323" stroke-width="3"/>
<path d="M415.018 574.867V621.138L374.946 644.273L334.875 621.138V574.867L374.946 551.731L415.018 574.867Z" stroke="#232323" stroke-width="3"/>
<path d="M495.726 574.867V621.138L455.654 644.273L415.583 621.138V574.867L455.654 551.731L495.726 574.867Z" stroke="#232323" stroke-width="3"/>
<path d="M374.782 643.867V690.138L334.711 713.273L294.64 690.138V643.867L334.711 620.731L374.782 643.867Z" stroke="#232323" stroke-width="3"/>
<path d="M294.074 643.867V690.138L254.003 713.273L213.932 690.138V643.867L254.003 620.731L294.074 643.867Z" stroke="#232323" stroke-width="3"/>
<path d="M456.018 643.867V690.138L415.946 713.273L375.875 690.138V643.867L415.946 620.731L456.018 643.867Z" stroke="#232323" stroke-width="3"/>
<path d="M536.726 643.867V690.138L496.654 713.273L456.583 690.138V643.867L496.654 620.731L536.726 643.867Z" stroke="#232323" stroke-width="3"/>
<path d="M333.782 712.867V759.138L293.711 782.273L253.64 759.138V712.867L293.711 689.731L333.782 712.867Z" stroke="#232323" stroke-width="3"/>
<path d="M253.074 712.867V759.138L213.003 782.273L172.932 759.138V712.867L213.003 689.731L253.074 712.867Z" stroke="#232323" stroke-width="3"/>
<path d="M415.018 712.867V759.138L374.946 782.273L334.875 759.138V712.867L374.946 689.731L415.018 712.867Z" stroke="#232323" stroke-width="3"/>
<path d="M495.726 712.867V759.138L455.654 782.273L415.583 759.138V712.867L455.654 689.731L495.726 712.867Z" stroke="#232323" stroke-width="3"/>
<path d="M698.782 505.867V552.138L658.711 575.273L618.64 552.138V505.867L658.711 482.731L698.782 505.867Z" stroke="#232323" stroke-width="3"/>
<path d="M618.074 505.867V552.138L578.003 575.273L537.932 552.138V505.867L578.003 482.731L618.074 505.867Z" stroke="#232323" stroke-width="3"/>
<path d="M780.018 505.867V552.138L739.946 575.273L699.875 552.138V505.867L739.946 482.731L780.018 505.867Z" stroke="#232323" stroke-width="3"/>
<path d="M860.726 505.867V552.138L820.654 575.273L780.583 552.138V505.867L820.654 482.731L860.726 505.867Z" stroke="#232323" stroke-width="3"/>
<path d="M657.782 574.867V621.138L617.711 644.273L577.64 621.138V574.867L617.711 551.731L657.782 574.867Z" stroke="#232323" stroke-width="3"/>
<path d="M577.074 574.867V621.138L537.003 644.273L496.932 621.138V574.867L537.003 551.731L577.074 574.867Z" stroke="#232323" stroke-width="3"/>
<path d="M739.018 574.867V621.138L698.946 644.273L658.875 621.138V574.867L698.946 551.731L739.018 574.867Z" stroke="#232323" stroke-width="3"/>
<path d="M819.726 574.867V621.138L779.654 644.273L739.583 621.138V574.867L779.654 551.731L819.726 574.867Z" stroke="#232323" stroke-width="3"/>
<path d="M698.782 643.867V690.138L658.711 713.273L618.64 690.138V643.867L658.711 620.731L698.782 643.867Z" stroke="#232323" stroke-width="3"/>
<path d="M618.074 643.867V690.138L578.003 713.273L537.932 690.138V643.867L578.003 620.731L618.074 643.867Z" stroke="#232323" stroke-width="3"/>
<path d="M780.018 643.867V690.138L739.946 713.273L699.875 690.138V643.867L739.946 620.731L780.018 643.867Z" stroke="#232323" stroke-width="3"/>
<path d="M860.726 643.867V690.138L820.654 713.273L780.583 690.138V643.867L820.654 620.731L860.726 643.867Z" stroke="#232323" stroke-width="3"/>
<path d="M657.782 712.867V759.138L617.711 782.273L577.64 759.138V712.867L617.711 689.731L657.782 712.867Z" stroke="#232323" stroke-width="3"/>
<path d="M577.074 712.867V759.138L537.003 782.273L496.932 759.138V712.867L537.003 689.731L577.074 712.867Z" stroke="#232323" stroke-width="3"/>
<path d="M739.018 712.867V759.138L698.946 782.273L658.875 759.138V712.867L698.946 689.731L739.018 712.867Z" stroke="#232323" stroke-width="3"/>
<path d="M819.726 712.867V759.138L779.654 782.273L739.583 759.138V712.867L779.654 689.731L819.726 712.867Z" stroke="#232323" stroke-width="3"/>
<path d="M374.782 781.867V828.138L334.711 851.273L294.64 828.138V781.867L334.711 758.731L374.782 781.867Z" stroke="#232323" stroke-width="3"/>
<path d="M294.074 781.867V828.138L254.003 851.273L213.932 828.138V781.867L254.003 758.731L294.074 781.867Z" stroke="#232323" stroke-width="3"/>
<path d="M456.018 781.867V828.138L415.946 851.273L375.875 828.138V781.867L415.946 758.731L456.018 781.867Z" stroke="#232323" stroke-width="3"/>
<path d="M536.726 781.867V828.138L496.654 851.273L456.583 828.138V781.867L496.654 758.731L536.726 781.867Z" stroke="#232323" stroke-width="3"/>
<path d="M333.782 850.867V897.138L293.711 920.273L253.64 897.138V850.867L293.711 827.731L333.782 850.867Z" stroke="#232323" stroke-width="3"/>
<path d="M253.074 850.867V897.138L213.003 920.273L172.932 897.138V850.867L213.003 827.731L253.074 850.867Z" stroke="#232323" stroke-width="3"/>
<path d="M415.018 850.867V897.138L374.946 920.273L334.875 897.138V850.867L374.946 827.731L415.018 850.867Z" stroke="#232323" stroke-width="3"/>
<path d="M495.726 850.867V897.138L455.654 920.273L415.583 897.138V850.867L455.654 827.731L495.726 850.867Z" stroke="#232323" stroke-width="3"/>
<path d="M374.782 919.867V966.138L334.711 989.273L294.64 966.138V919.867L334.711 896.731L374.782 919.867Z" stroke="#232323" stroke-width="3"/>
<path d="M294.074 919.867V966.138L254.003 989.273L213.932 966.138V919.867L254.003 896.731L294.074 919.867Z" stroke="#232323" stroke-width="3"/>
<path d="M456.018 919.867V966.138L415.946 989.273L375.875 966.138V919.867L415.946 896.731L456.018 919.867Z" stroke="#232323" stroke-width="3"/>
<path d="M536.726 919.867V966.138L496.654 989.273L456.583 966.138V919.867L496.654 896.731L536.726 919.867Z" stroke="#232323" stroke-width="3"/>
<path d="M333.782 988.867V1035.14L293.711 1058.27L253.64 1035.14V988.867L293.711 965.731L333.782 988.867Z" stroke="#232323" stroke-width="3"/>
<path d="M253.074 988.867V1035.14L213.003 1058.27L172.932 1035.14V988.867L213.003 965.731L253.074 988.867Z" stroke="#232323" stroke-width="3"/>
<path d="M415.018 988.867V1035.14L374.946 1058.27L334.875 1035.14V988.867L374.946 965.731L415.018 988.867Z" stroke="#232323" stroke-width="3"/>
<path d="M495.726 988.867V1035.14L455.654 1058.27L415.583 1035.14V988.867L455.654 965.731L495.726 988.867Z" stroke="#232323" stroke-width="3"/>
<path d="M698.782 781.867V828.138L658.711 851.273L618.64 828.138V781.867L658.711 758.731L698.782 781.867Z" stroke="#232323" stroke-width="3"/>
<path d="M618.074 781.867V828.138L578.003 851.273L537.932 828.138V781.867L578.003 758.731L618.074 781.867Z" stroke="#232323" stroke-width="3"/>
<path d="M780.018 781.867V828.138L739.946 851.273L699.875 828.138V781.867L739.946 758.731L780.018 781.867Z" stroke="#232323" stroke-width="3"/>
<path d="M860.726 781.867V828.138L820.654 851.273L780.583 828.138V781.867L820.654 758.731L860.726 781.867Z" stroke="#232323" stroke-width="3"/>
<path d="M657.782 850.867V897.138L617.711 920.273L577.64 897.138V850.867L617.711 827.731L657.782 850.867Z" stroke="#232323" stroke-width="3"/>
<path d="M577.074 850.867V897.138L537.003 920.273L496.932 897.138V850.867L537.003 827.731L577.074 850.867Z" stroke="#232323" stroke-width="3"/>
<path d="M739.018 850.867V897.138L698.946 920.273L658.875 897.138V850.867L698.946 827.731L739.018 850.867Z" stroke="#232323" stroke-width="3"/>
<path d="M819.726 850.867V897.138L779.654 920.273L739.583 897.138V850.867L779.654 827.731L819.726 850.867Z" stroke="#232323" stroke-width="3"/>
<path d="M698.782 919.867V966.138L658.711 989.273L618.64 966.138V919.867L658.711 896.731L698.782 919.867Z" stroke="#232323" stroke-width="3"/>
<path d="M618.074 919.867V966.138L578.003 989.273L537.932 966.138V919.867L578.003 896.731L618.074 919.867Z" stroke="#232323" stroke-width="3"/>
<path d="M780.018 919.867V966.138L739.946 989.273L699.875 966.138V919.867L739.946 896.731L780.018 919.867Z" stroke="#232323" stroke-width="3"/>
<path d="M860.726 919.867V966.138L820.654 989.273L780.583 966.138V919.867L820.654 896.731L860.726 919.867Z" stroke="#232323" stroke-width="3"/>
<path d="M657.782 988.867V1035.14L617.711 1058.27L577.64 1035.14V988.867L617.711 965.731L657.782 988.867Z" stroke="#232323" stroke-width="3"/>
<path d="M577.074 988.867V1035.14L537.003 1058.27L496.932 1035.14V988.867L537.003 965.731L577.074 988.867Z" stroke="#232323" stroke-width="3"/>
<path d="M739.018 988.867V1035.14L698.946 1058.27L658.875 1035.14V988.867L698.946 965.731L739.018 988.867Z" stroke="#232323" stroke-width="3"/>
<path d="M819.726 988.867V1035.14L779.654 1058.27L739.583 1035.14V988.867L779.654 965.731L819.726 988.867Z" stroke="#232323" stroke-width="3"/>
<path d="M1022.78 -46.1328V0.137695L982.711 23.2734L942.64 0.137695V-46.1328L982.711 -69.2686L1022.78 -46.1328Z" stroke="#232323" stroke-width="3"/>
<path d="M942.074 -46.1328V0.137695L902.003 23.2734L861.932 0.137695V-46.1328L902.003 -69.2686L942.074 -46.1328Z" stroke="#232323" stroke-width="3"/>
<path d="M1104.02 -46.1328V0.137695L1063.95 23.2734L1023.88 0.137695V-46.1328L1063.95 -69.2686L1104.02 -46.1328Z" stroke="#232323" stroke-width="3"/>
<path d="M1184.73 -46.1328V0.137695L1144.65 23.2734L1104.58 0.137695V-46.1328L1144.65 -69.2686L1184.73 -46.1328Z" stroke="#232323" stroke-width="3"/>
<path d="M981.782 22.8672V69.1377L941.711 92.2734L901.64 69.1377V22.8672L941.711 -0.268555L981.782 22.8672Z" stroke="#232323" stroke-width="3"/>
<path d="M901.074 22.8672V69.1377L861.003 92.2734L820.932 69.1377V22.8672L861.003 -0.268555L901.074 22.8672Z" stroke="#232323" stroke-width="3"/>
<path d="M1063.02 22.8672V69.1377L1022.95 92.2734L982.875 69.1377V22.8672L1022.95 -0.268555L1063.02 22.8672Z" stroke="#232323" stroke-width="3"/>
<path d="M1143.73 22.8672V69.1377L1103.65 92.2734L1063.58 69.1377V22.8672L1103.65 -0.268555L1143.73 22.8672Z" stroke="#232323" stroke-width="3"/>
<path d="M1022.78 91.8672V138.138L982.711 161.273L942.64 138.138V91.8672L982.711 68.7314L1022.78 91.8672Z" stroke="#232323" stroke-width="3"/>
<path d="M942.074 91.8672V138.138L902.003 161.273L861.932 138.138V91.8672L902.003 68.7314L942.074 91.8672Z" stroke="#232323" stroke-width="3"/>
<path d="M1104.02 91.8672V138.138L1063.95 161.273L1023.88 138.138V91.8672L1063.95 68.7314L1104.02 91.8672Z" stroke="#232323" stroke-width="3"/>
<path d="M1184.73 91.8672V138.138L1144.65 161.273L1104.58 138.138V91.8672L1144.65 68.7314L1184.73 91.8672Z" stroke="#232323" stroke-width="3"/>
<path d="M981.782 160.867V207.138L941.711 230.273L901.64 207.138V160.867L941.711 137.731L981.782 160.867Z" stroke="#232323" stroke-width="3"/>
<path d="M901.074 160.867V207.138L861.003 230.273L820.932 207.138V160.867L861.003 137.731L901.074 160.867Z" stroke="#232323" stroke-width="3"/>
<path d="M1063.02 160.867V207.138L1022.95 230.273L982.875 207.138V160.867L1022.95 137.731L1063.02 160.867Z" stroke="#232323" stroke-width="3"/>
<path d="M1143.73 160.867V207.138L1103.65 230.273L1063.58 207.138V160.867L1103.65 137.731L1143.73 160.867Z" stroke="#232323" stroke-width="3"/>
<path d="M1346.78 -46.1328V0.137695L1306.71 23.2734L1266.64 0.137695V-46.1328L1306.71 -69.2686L1346.78 -46.1328Z" stroke="#232323" stroke-width="3"/>
<path d="M1266.07 -46.1328V0.137695L1226 23.2734L1185.93 0.137695V-46.1328L1226 -69.2686L1266.07 -46.1328Z" stroke="#232323" stroke-width="3"/>
<path d="M1428.02 -46.1328V0.137695L1387.95 23.2734L1347.88 0.137695V-46.1328L1387.95 -69.2686L1428.02 -46.1328Z" stroke="#232323" stroke-width="3"/>
<path d="M1508.73 -46.1328V0.137695L1468.65 23.2734L1428.58 0.137695V-46.1328L1468.65 -69.2686L1508.73 -46.1328Z" stroke="#232323" stroke-width="3"/>
<path d="M1305.78 22.8672V69.1377L1265.71 92.2734L1225.64 69.1377V22.8672L1265.71 -0.268555L1305.78 22.8672Z" stroke="#232323" stroke-width="3"/>
<path d="M1225.07 22.8672V69.1377L1185 92.2734L1144.93 69.1377V22.8672L1185 -0.268555L1225.07 22.8672Z" stroke="#232323" stroke-width="3"/>
<path d="M1387.02 22.8672V69.1377L1346.95 92.2734L1306.88 69.1377V22.8672L1346.95 -0.268555L1387.02 22.8672Z" stroke="#232323" stroke-width="3"/>
<path d="M1467.73 22.8672V69.1377L1427.65 92.2734L1387.58 69.1377V22.8672L1427.65 -0.268555L1467.73 22.8672Z" stroke="#232323" stroke-width="3"/>
<path d="M1346.78 91.8672V138.138L1306.71 161.273L1266.64 138.138V91.8672L1306.71 68.7314L1346.78 91.8672Z" stroke="#232323" stroke-width="3"/>
<path d="M1266.07 91.8672V138.138L1226 161.273L1185.93 138.138V91.8672L1226 68.7314L1266.07 91.8672Z" stroke="#232323" stroke-width="3"/>
<path d="M1428.02 91.8672V138.138L1387.95 161.273L1347.88 138.138V91.8672L1387.95 68.7314L1428.02 91.8672Z" stroke="#232323" stroke-width="3"/>
<path d="M1508.73 91.8672V138.138L1468.65 161.273L1428.58 138.138V91.8672L1468.65 68.7314L1508.73 91.8672Z" stroke="#232323" stroke-width="3"/>
<path d="M1305.78 160.867V207.138L1265.71 230.273L1225.64 207.138V160.867L1265.71 137.731L1305.78 160.867Z" stroke="#232323" stroke-width="3"/>
<path d="M1225.07 160.867V207.138L1185 230.273L1144.93 207.138V160.867L1185 137.731L1225.07 160.867Z" stroke="#232323" stroke-width="3"/>
<path d="M1387.02 160.867V207.138L1346.95 230.273L1306.88 207.138V160.867L1346.95 137.731L1387.02 160.867Z" stroke="#232323" stroke-width="3"/>
<path d="M1467.73 160.867V207.138L1427.65 230.273L1387.58 207.138V160.867L1427.65 137.731L1467.73 160.867Z" stroke="#232323" stroke-width="3"/>
<path d="M1022.78 229.867V276.138L982.711 299.273L942.64 276.138V229.867L982.711 206.731L1022.78 229.867Z" stroke="#232323" stroke-width="3"/>
<path d="M942.074 229.867V276.138L902.003 299.273L861.932 276.138V229.867L902.003 206.731L942.074 229.867Z" stroke="#232323" stroke-width="3"/>
<path d="M1104.02 229.867V276.138L1063.95 299.273L1023.88 276.138V229.867L1063.95 206.731L1104.02 229.867Z" stroke="#232323" stroke-width="3"/>
<path d="M1184.73 229.867V276.138L1144.65 299.273L1104.58 276.138V229.867L1144.65 206.731L1184.73 229.867Z" stroke="#232323" stroke-width="3"/>
<path d="M981.782 298.867V345.138L941.711 368.273L901.64 345.138V298.867L941.711 275.731L981.782 298.867Z" stroke="#232323" stroke-width="3"/>
<path d="M901.074 298.867V345.138L861.003 368.273L820.932 345.138V298.867L861.003 275.731L901.074 298.867Z" stroke="#232323" stroke-width="3"/>
<path d="M1063.02 298.867V345.138L1022.95 368.273L982.875 345.138V298.867L1022.95 275.731L1063.02 298.867Z" stroke="#232323" stroke-width="3"/>
<path d="M1143.73 298.867V345.138L1103.65 368.273L1063.58 345.138V298.867L1103.65 275.731L1143.73 298.867Z" stroke="#232323" stroke-width="3"/>
<path d="M1022.78 367.867V414.138L982.711 437.273L942.64 414.138V367.867L982.711 344.731L1022.78 367.867Z" stroke="#232323" stroke-width="3"/>
<path d="M942.074 367.867V414.138L902.003 437.273L861.932 414.138V367.867L902.003 344.731L942.074 367.867Z" stroke="#232323" stroke-width="3"/>
<path d="M1104.02 367.867V414.138L1063.95 437.273L1023.88 414.138V367.867L1063.95 344.731L1104.02 367.867Z" stroke="#232323" stroke-width="3"/>
<path d="M1184.73 367.867V414.138L1144.65 437.273L1104.58 414.138V367.867L1144.65 344.731L1184.73 367.867Z" stroke="#232323" stroke-width="3"/>
<path d="M981.782 436.867V483.138L941.711 506.273L901.64 483.138V436.867L941.711 413.731L981.782 436.867Z" stroke="#232323" stroke-width="3"/>
<path d="M901.074 436.867V483.138L861.003 506.273L820.932 483.138V436.867L861.003 413.731L901.074 436.867Z" stroke="#232323" stroke-width="3"/>
<path d="M1063.02 436.867V483.138L1022.95 506.273L982.875 483.138V436.867L1022.95 413.731L1063.02 436.867Z" stroke="#232323" stroke-width="3"/>
<path d="M1143.73 436.867V483.138L1103.65 506.273L1063.58 483.138V436.867L1103.65 413.731L1143.73 436.867Z" stroke="#232323" stroke-width="3"/>
<path d="M1346.78 229.867V276.138L1306.71 299.273L1266.64 276.138V229.867L1306.71 206.731L1346.78 229.867Z" stroke="#232323" stroke-width="3"/>
<path d="M1266.07 229.867V276.138L1226 299.273L1185.93 276.138V229.867L1226 206.731L1266.07 229.867Z" stroke="#232323" stroke-width="3"/>
<path d="M1428.02 229.867V276.138L1387.95 299.273L1347.88 276.138V229.867L1387.95 206.731L1428.02 229.867Z" stroke="#232323" stroke-width="3"/>
<path d="M1508.73 229.867V276.138L1468.65 299.273L1428.58 276.138V229.867L1468.65 206.731L1508.73 229.867Z" stroke="#232323" stroke-width="3"/>
<path d="M1305.78 298.867V345.138L1265.71 368.273L1225.64 345.138V298.867L1265.71 275.731L1305.78 298.867Z" stroke="#232323" stroke-width="3"/>
<path d="M1225.07 298.867V345.138L1185 368.273L1144.93 345.138V298.867L1185 275.731L1225.07 298.867Z" stroke="#232323" stroke-width="3"/>
<path d="M1387.02 298.867V345.138L1346.95 368.273L1306.88 345.138V298.867L1346.95 275.731L1387.02 298.867Z" stroke="#232323" stroke-width="3"/>
<path d="M1467.73 298.867V345.138L1427.65 368.273L1387.58 345.138V298.867L1427.65 275.731L1467.73 298.867Z" stroke="#232323" stroke-width="3"/>
<path d="M1346.78 367.867V414.138L1306.71 437.273L1266.64 414.138V367.867L1306.71 344.731L1346.78 367.867Z" stroke="#232323" stroke-width="3"/>
<path d="M1266.07 367.867V414.138L1226 437.273L1185.93 414.138V367.867L1226 344.731L1266.07 367.867Z" stroke="#232323" stroke-width="3"/>
<path d="M1428.02 367.867V414.138L1387.95 437.273L1347.88 414.138V367.867L1387.95 344.731L1428.02 367.867Z" stroke="#232323" stroke-width="3"/>
<path d="M1508.73 367.867V414.138L1468.65 437.273L1428.58 414.138V367.867L1468.65 344.731L1508.73 367.867Z" stroke="#232323" stroke-width="3"/>
<path d="M1305.78 436.867V483.138L1265.71 506.273L1225.64 483.138V436.867L1265.71 413.731L1305.78 436.867Z" stroke="#232323" stroke-width="3"/>
<path d="M1225.07 436.867V483.138L1185 506.273L1144.93 483.138V436.867L1185 413.731L1225.07 436.867Z" stroke="#232323" stroke-width="3"/>
<path d="M1387.02 436.867V483.138L1346.95 506.273L1306.88 483.138V436.867L1346.95 413.731L1387.02 436.867Z" stroke="#232323" stroke-width="3"/>
<path d="M1467.73 436.867V483.138L1427.65 506.273L1387.58 483.138V436.867L1427.65 413.731L1467.73 436.867Z" stroke="#232323" stroke-width="3"/>
<path d="M1670.78 -46.1328V0.137695L1630.71 23.2734L1590.64 0.137695V-46.1328L1630.71 -69.2686L1670.78 -46.1328Z" stroke="#232323" stroke-width="3"/>
<path d="M1590.07 -46.1328V0.137695L1550 23.2734L1509.93 0.137695V-46.1328L1550 -69.2686L1590.07 -46.1328Z" stroke="#232323" stroke-width="3"/>
<path d="M1752.02 -46.1328V0.137695L1711.95 23.2734L1671.88 0.137695V-46.1328L1711.95 -69.2686L1752.02 -46.1328Z" stroke="#232323" stroke-width="3"/>
<path d="M1629.78 22.8672V69.1377L1589.71 92.2734L1549.64 69.1377V22.8672L1589.71 -0.268555L1629.78 22.8672Z" stroke="#232323" stroke-width="3"/>
<path d="M1549.07 22.8672V69.1377L1509 92.2734L1468.93 69.1377V22.8672L1509 -0.268555L1549.07 22.8672Z" stroke="#232323" stroke-width="3"/>
<path d="M1711.02 22.8672V69.1377L1670.95 92.2734L1630.88 69.1377V22.8672L1670.95 -0.268555L1711.02 22.8672Z" stroke="#232323" stroke-width="3"/>
<path d="M1791.73 22.8672V69.1377L1751.65 92.2734L1711.58 69.1377V22.8672L1751.65 -0.268555L1791.73 22.8672Z" stroke="#232323" stroke-width="3"/>
<path d="M1670.78 91.8672V138.138L1630.71 161.273L1590.64 138.138V91.8672L1630.71 68.7314L1670.78 91.8672Z" stroke="#232323" stroke-width="3"/>
<path d="M1590.07 91.8672V138.138L1550 161.273L1509.93 138.138V91.8672L1550 68.7314L1590.07 91.8672Z" stroke="#232323" stroke-width="3"/>
<path d="M1752.02 91.8672V138.138L1711.95 161.273L1671.88 138.138V91.8672L1711.95 68.7314L1752.02 91.8672Z" stroke="#232323" stroke-width="3"/>
<path d="M1629.78 160.867V207.138L1589.71 230.273L1549.64 207.138V160.867L1589.71 137.731L1629.78 160.867Z" stroke="#232323" stroke-width="3"/>
<path d="M1549.07 160.867V207.138L1509 230.273L1468.93 207.138V160.867L1509 137.731L1549.07 160.867Z" stroke="#232323" stroke-width="3"/>
<path d="M1711.02 160.867V207.138L1670.95 230.273L1630.88 207.138V160.867L1670.95 137.731L1711.02 160.867Z" stroke="#232323" stroke-width="3"/>
<path d="M1791.73 160.867V207.138L1751.65 230.273L1711.58 207.138V160.867L1751.65 137.731L1791.73 160.867Z" stroke="#232323" stroke-width="3"/>
<path d="M1670.78 229.867V276.138L1630.71 299.273L1590.64 276.138V229.867L1630.71 206.731L1670.78 229.867Z" stroke="#232323" stroke-width="3"/>
<path d="M1590.07 229.867V276.138L1550 299.273L1509.93 276.138V229.867L1550 206.731L1590.07 229.867Z" stroke="#232323" stroke-width="3"/>
<path d="M1752.02 229.867V276.138L1711.95 299.273L1671.88 276.138V229.867L1711.95 206.731L1752.02 229.867Z" stroke="#232323" stroke-width="3"/>
<path d="M1629.78 298.867V345.138L1589.71 368.273L1549.64 345.138V298.867L1589.71 275.731L1629.78 298.867Z" stroke="#232323" stroke-width="3"/>
<path d="M1549.07 298.867V345.138L1509 368.273L1468.93 345.138V298.867L1509 275.731L1549.07 298.867Z" stroke="#232323" stroke-width="3"/>
<path d="M1711.02 298.867V345.138L1670.95 368.273L1630.88 345.138V298.867L1670.95 275.731L1711.02 298.867Z" stroke="#232323" stroke-width="3"/>
<path d="M1791.73 298.867V345.138L1751.65 368.273L1711.58 345.138V298.867L1751.65 275.731L1791.73 298.867Z" stroke="#232323" stroke-width="3"/>
<path d="M1670.78 367.867V414.138L1630.71 437.273L1590.64 414.138V367.867L1630.71 344.731L1670.78 367.867Z" stroke="#232323" stroke-width="3"/>
<path d="M1590.07 367.867V414.138L1550 437.273L1509.93 414.138V367.867L1550 344.731L1590.07 367.867Z" stroke="#232323" stroke-width="3"/>
<path d="M1752.02 367.867V414.138L1711.95 437.273L1671.88 414.138V367.867L1711.95 344.731L1752.02 367.867Z" stroke="#232323" stroke-width="3"/>
<path d="M1629.78 436.867V483.138L1589.71 506.273L1549.64 483.138V436.867L1589.71 413.731L1629.78 436.867Z" stroke="#232323" stroke-width="3"/>
<path d="M1549.07 436.867V483.138L1509 506.273L1468.93 483.138V436.867L1509 413.731L1549.07 436.867Z" stroke="#232323" stroke-width="3"/>
<path d="M1711.02 436.867V483.138L1670.95 506.273L1630.88 483.138V436.867L1670.95 413.731L1711.02 436.867Z" stroke="#232323" stroke-width="3"/>
<path d="M1791.73 436.867V483.138L1751.65 506.273L1711.58 483.138V436.867L1751.65 413.731L1791.73 436.867Z" stroke="#232323" stroke-width="3"/>
<path d="M1022.78 505.867V552.138L982.711 575.273L942.64 552.138V505.867L982.711 482.731L1022.78 505.867Z" stroke="#232323" stroke-width="3"/>
<path d="M942.074 505.867V552.138L902.003 575.273L861.932 552.138V505.867L902.003 482.731L942.074 505.867Z" stroke="#232323" stroke-width="3"/>
<path d="M1104.02 505.867V552.138L1063.95 575.273L1023.88 552.138V505.867L1063.95 482.731L1104.02 505.867Z" stroke="#232323" stroke-width="3"/>
<path d="M1184.73 505.867V552.138L1144.65 575.273L1104.58 552.138V505.867L1144.65 482.731L1184.73 505.867Z" stroke="#232323" stroke-width="3"/>
<path d="M981.782 574.867V621.138L941.711 644.273L901.64 621.138V574.867L941.711 551.731L981.782 574.867Z" stroke="#232323" stroke-width="3"/>
<path d="M901.074 574.867V621.138L861.003 644.273L820.932 621.138V574.867L861.003 551.731L901.074 574.867Z" stroke="#232323" stroke-width="3"/>
<path d="M1063.02 574.867V621.138L1022.95 644.273L982.875 621.138V574.867L1022.95 551.731L1063.02 574.867Z" stroke="#232323" stroke-width="3"/>
<path d="M1143.73 574.867V621.138L1103.65 644.273L1063.58 621.138V574.867L1103.65 551.731L1143.73 574.867Z" stroke="#232323" stroke-width="3"/>
<path d="M1022.78 643.867V690.138L982.711 713.273L942.64 690.138V643.867L982.711 620.731L1022.78 643.867Z" stroke="#232323" stroke-width="3"/>
<path d="M942.074 643.867V690.138L902.003 713.273L861.932 690.138V643.867L902.003 620.731L942.074 643.867Z" stroke="#232323" stroke-width="3"/>
<path d="M1104.02 643.867V690.138L1063.95 713.273L1023.88 690.138V643.867L1063.95 620.731L1104.02 643.867Z" stroke="#232323" stroke-width="3"/>
<path d="M1184.73 643.867V690.138L1144.65 713.273L1104.58 690.138V643.867L1144.65 620.731L1184.73 643.867Z" stroke="#232323" stroke-width="3"/>
<path d="M981.782 712.867V759.138L941.711 782.273L901.64 759.138V712.867L941.711 689.731L981.782 712.867Z" stroke="#232323" stroke-width="3"/>
<path d="M901.074 712.867V759.138L861.003 782.273L820.932 759.138V712.867L861.003 689.731L901.074 712.867Z" stroke="#232323" stroke-width="3"/>
<path d="M1063.02 712.867V759.138L1022.95 782.273L982.875 759.138V712.867L1022.95 689.731L1063.02 712.867Z" stroke="#232323" stroke-width="3"/>
<path d="M1143.73 712.867V759.138L1103.65 782.273L1063.58 759.138V712.867L1103.65 689.731L1143.73 712.867Z" stroke="#232323" stroke-width="3"/>
<path d="M1346.78 505.867V552.138L1306.71 575.273L1266.64 552.138V505.867L1306.71 482.731L1346.78 505.867Z" stroke="#232323" stroke-width="3"/>
<path d="M1266.07 505.867V552.138L1226 575.273L1185.93 552.138V505.867L1226 482.731L1266.07 505.867Z" stroke="#232323" stroke-width="3"/>
<path d="M1428.02 505.867V552.138L1387.95 575.273L1347.88 552.138V505.867L1387.95 482.731L1428.02 505.867Z" stroke="#232323" stroke-width="3"/>
<path d="M1508.73 505.867V552.138L1468.65 575.273L1428.58 552.138V505.867L1468.65 482.731L1508.73 505.867Z" stroke="#232323" stroke-width="3"/>
<path d="M1305.78 574.867V621.138L1265.71 644.273L1225.64 621.138V574.867L1265.71 551.731L1305.78 574.867Z" stroke="#232323" stroke-width="3"/>
<path d="M1225.07 574.867V621.138L1185 644.273L1144.93 621.138V574.867L1185 551.731L1225.07 574.867Z" stroke="#232323" stroke-width="3"/>
<path d="M1387.02 574.867V621.138L1346.95 644.273L1306.88 621.138V574.867L1346.95 551.731L1387.02 574.867Z" stroke="#232323" stroke-width="3"/>
<path d="M1467.73 574.867V621.138L1427.65 644.273L1387.58 621.138V574.867L1427.65 551.731L1467.73 574.867Z" stroke="#232323" stroke-width="3"/>
<path d="M1346.78 643.867V690.138L1306.71 713.273L1266.64 690.138V643.867L1306.71 620.731L1346.78 643.867Z" stroke="#232323" stroke-width="3"/>
<path d="M1266.07 643.867V690.138L1226 713.273L1185.93 690.138V643.867L1226 620.731L1266.07 643.867Z" stroke="#232323" stroke-width="3"/>
<path d="M1428.02 643.867V690.138L1387.95 713.273L1347.88 690.138V643.867L1387.95 620.731L1428.02 643.867Z" stroke="#232323" stroke-width="3"/>
<path d="M1508.73 643.867V690.138L1468.65 713.273L1428.58 690.138V643.867L1468.65 620.731L1508.73 643.867Z" stroke="#232323" stroke-width="3"/>
<path d="M1305.78 712.867V759.138L1265.71 782.273L1225.64 759.138V712.867L1265.71 689.731L1305.78 712.867Z" stroke="#232323" stroke-width="3"/>
<path d="M1225.07 712.867V759.138L1185 782.273L1144.93 759.138V712.867L1185 689.731L1225.07 712.867Z" stroke="#232323" stroke-width="3"/>
<path d="M1387.02 712.867V759.138L1346.95 782.273L1306.88 759.138V712.867L1346.95 689.731L1387.02 712.867Z" stroke="#232323" stroke-width="3"/>
<path d="M1467.73 712.867V759.138L1427.65 782.273L1387.58 759.138V712.867L1427.65 689.731L1467.73 712.867Z" stroke="#232323" stroke-width="3"/>
<path d="M1022.78 781.867V828.138L982.711 851.273L942.64 828.138V781.867L982.711 758.731L1022.78 781.867Z" stroke="#232323" stroke-width="3"/>
<path d="M942.074 781.867V828.138L902.003 851.273L861.932 828.138V781.867L902.003 758.731L942.074 781.867Z" stroke="#232323" stroke-width="3"/>
<path d="M1104.02 781.867V828.138L1063.95 851.273L1023.88 828.138V781.867L1063.95 758.731L1104.02 781.867Z" stroke="#232323" stroke-width="3"/>
<path d="M1184.73 781.867V828.138L1144.65 851.273L1104.58 828.138V781.867L1144.65 758.731L1184.73 781.867Z" stroke="#232323" stroke-width="3"/>
<path d="M981.782 850.867V897.138L941.711 920.273L901.64 897.138V850.867L941.711 827.731L981.782 850.867Z" stroke="#232323" stroke-width="3"/>
<path d="M901.074 850.867V897.138L861.003 920.273L820.932 897.138V850.867L861.003 827.731L901.074 850.867Z" stroke="#232323" stroke-width="3"/>
<path d="M1063.02 850.867V897.138L1022.95 920.273L982.875 897.138V850.867L1022.95 827.731L1063.02 850.867Z" stroke="#232323" stroke-width="3"/>
<path d="M1143.73 850.867V897.138L1103.65 920.273L1063.58 897.138V850.867L1103.65 827.731L1143.73 850.867Z" stroke="#232323" stroke-width="3"/>
<path d="M1022.78 919.867V966.138L982.711 989.273L942.64 966.138V919.867L982.711 896.731L1022.78 919.867Z" stroke="#232323" stroke-width="3"/>
<path d="M942.074 919.867V966.138L902.003 989.273L861.932 966.138V919.867L902.003 896.731L942.074 919.867Z" stroke="#232323" stroke-width="3"/>
<path d="M1104.02 919.867V966.138L1063.95 989.273L1023.88 966.138V919.867L1063.95 896.731L1104.02 919.867Z" stroke="#232323" stroke-width="3"/>
<path d="M1184.73 919.867V966.138L1144.65 989.273L1104.58 966.138V919.867L1144.65 896.731L1184.73 919.867Z" stroke="#232323" stroke-width="3"/>
<path d="M981.782 988.867V1035.14L941.711 1058.27L901.64 1035.14V988.867L941.711 965.731L981.782 988.867Z" stroke="#232323" stroke-width="3"/>
<path d="M901.074 988.867V1035.14L861.003 1058.27L820.932 1035.14V988.867L861.003 965.731L901.074 988.867Z" stroke="#232323" stroke-width="3"/>
<path d="M1063.02 988.867V1035.14L1022.95 1058.27L982.875 1035.14V988.867L1022.95 965.731L1063.02 988.867Z" stroke="#232323" stroke-width="3"/>
<path d="M1143.73 988.867V1035.14L1103.65 1058.27L1063.58 1035.14V988.867L1103.65 965.731L1143.73 988.867Z" stroke="#232323" stroke-width="3"/>
<path d="M1346.78 781.867V828.138L1306.71 851.273L1266.64 828.138V781.867L1306.71 758.731L1346.78 781.867Z" stroke="#232323" stroke-width="3"/>
<path d="M1266.07 781.867V828.138L1226 851.273L1185.93 828.138V781.867L1226 758.731L1266.07 781.867Z" stroke="#232323" stroke-width="3"/>
<path d="M1428.02 781.867V828.138L1387.95 851.273L1347.88 828.138V781.867L1387.95 758.731L1428.02 781.867Z" stroke="#232323" stroke-width="3"/>
<path d="M1508.73 781.867V828.138L1468.65 851.273L1428.58 828.138V781.867L1468.65 758.731L1508.73 781.867Z" stroke="#232323" stroke-width="3"/>
<path d="M1305.78 850.867V897.138L1265.71 920.273L1225.64 897.138V850.867L1265.71 827.731L1305.78 850.867Z" stroke="#232323" stroke-width="3"/>
<path d="M1225.07 850.867V897.138L1185 920.273L1144.93 897.138V850.867L1185 827.731L1225.07 850.867Z" stroke="#232323" stroke-width="3"/>
<path d="M1387.02 850.867V897.138L1346.95 920.273L1306.88 897.138V850.867L1346.95 827.731L1387.02 850.867Z" stroke="#232323" stroke-width="3"/>
<path d="M1467.73 850.867V897.138L1427.65 920.273L1387.58 897.138V850.867L1427.65 827.731L1467.73 850.867Z" stroke="#232323" stroke-width="3"/>
<path d="M1346.78 919.867V966.138L1306.71 989.273L1266.64 966.138V919.867L1306.71 896.731L1346.78 919.867Z" stroke="#232323" stroke-width="3"/>
<path d="M1266.07 919.867V966.138L1226 989.273L1185.93 966.138V919.867L1226 896.731L1266.07 919.867Z" stroke="#232323" stroke-width="3"/>
<path d="M1428.02 919.867V966.138L1387.95 989.273L1347.88 966.138V919.867L1387.95 896.731L1428.02 919.867Z" stroke="#232323" stroke-width="3"/>
<path d="M1508.73 919.867V966.138L1468.65 989.273L1428.58 966.138V919.867L1468.65 896.731L1508.73 919.867Z" stroke="#232323" stroke-width="3"/>
<path d="M1305.78 988.867V1035.14L1265.71 1058.27L1225.64 1035.14V988.867L1265.71 965.731L1305.78 988.867Z" stroke="#232323" stroke-width="3"/>
<path d="M1225.07 988.867V1035.14L1185 1058.27L1144.93 1035.14V988.867L1185 965.731L1225.07 988.867Z" stroke="#232323" stroke-width="3"/>
<path d="M1387.02 988.867V1035.14L1346.95 1058.27L1306.88 1035.14V988.867L1346.95 965.731L1387.02 988.867Z" stroke="#232323" stroke-width="3"/>
<path d="M1467.73 988.867V1035.14L1427.65 1058.27L1387.58 1035.14V988.867L1427.65 965.731L1467.73 988.867Z" stroke="#232323" stroke-width="3"/>
<path d="M1670.78 505.867V552.138L1630.71 575.273L1590.64 552.138V505.867L1630.71 482.731L1670.78 505.867Z" stroke="#232323" stroke-width="3"/>
<path d="M1590.07 505.867V552.138L1550 575.273L1509.93 552.138V505.867L1550 482.731L1590.07 505.867Z" stroke="#232323" stroke-width="3"/>
<path d="M1752.02 505.867V552.138L1711.95 575.273L1671.88 552.138V505.867L1711.95 482.731L1752.02 505.867Z" stroke="#232323" stroke-width="3"/>
<path d="M1629.78 574.867V621.138L1589.71 644.273L1549.64 621.138V574.867L1589.71 551.731L1629.78 574.867Z" stroke="#232323" stroke-width="3"/>
<path d="M1549.07 574.867V621.138L1509 644.273L1468.93 621.138V574.867L1509 551.731L1549.07 574.867Z" stroke="#232323" stroke-width="3"/>
<path d="M1711.02 574.867V621.138L1670.95 644.273L1630.88 621.138V574.867L1670.95 551.731L1711.02 574.867Z" stroke="#232323" stroke-width="3"/>
<path d="M1791.73 574.867V621.138L1751.65 644.273L1711.58 621.138V574.867L1751.65 551.731L1791.73 574.867Z" stroke="#232323" stroke-width="3"/>
<path d="M1670.78 643.867V690.138L1630.71 713.273L1590.64 690.138V643.867L1630.71 620.731L1670.78 643.867Z" stroke="#232323" stroke-width="3"/>
<path d="M1590.07 643.867V690.138L1550 713.273L1509.93 690.138V643.867L1550 620.731L1590.07 643.867Z" stroke="#232323" stroke-width="3"/>
<path d="M1752.02 643.867V690.138L1711.95 713.273L1671.88 690.138V643.867L1711.95 620.731L1752.02 643.867Z" stroke="#232323" stroke-width="3"/>
<path d="M1629.78 712.867V759.138L1589.71 782.273L1549.64 759.138V712.867L1589.71 689.731L1629.78 712.867Z" stroke="#232323" stroke-width="3"/>
<path d="M1549.07 712.867V759.138L1509 782.273L1468.93 759.138V712.867L1509 689.731L1549.07 712.867Z" stroke="#232323" stroke-width="3"/>
<path d="M1711.02 712.867V759.138L1670.95 782.273L1630.88 759.138V712.867L1670.95 689.731L1711.02 712.867Z" stroke="#232323" stroke-width="3"/>
<path d="M1791.73 712.867V759.138L1751.65 782.273L1711.58 759.138V712.867L1751.65 689.731L1791.73 712.867Z" stroke="#232323" stroke-width="3"/>
<path d="M1670.78 781.867V828.138L1630.71 851.273L1590.64 828.138V781.867L1630.71 758.731L1670.78 781.867Z" stroke="#232323" stroke-width="3"/>
<path d="M1590.07 781.867V828.138L1550 851.273L1509.93 828.138V781.867L1550 758.731L1590.07 781.867Z" stroke="#232323" stroke-width="3"/>
<path d="M1752.02 781.867V828.138L1711.95 851.273L1671.88 828.138V781.867L1711.95 758.731L1752.02 781.867Z" stroke="#232323" stroke-width="3"/>
<path d="M1629.78 850.867V897.138L1589.71 920.273L1549.64 897.138V850.867L1589.71 827.731L1629.78 850.867Z" stroke="#232323" stroke-width="3"/>
<path d="M1549.07 850.867V897.138L1509 920.273L1468.93 897.138V850.867L1509 827.731L1549.07 850.867Z" stroke="#232323" stroke-width="3"/>
<path d="M1711.02 850.867V897.138L1670.95 920.273L1630.88 897.138V850.867L1670.95 827.731L1711.02 850.867Z" stroke="#232323" stroke-width="3"/>
<path d="M1791.73 850.867V897.138L1751.65 920.273L1711.58 897.138V850.867L1751.65 827.731L1791.73 850.867Z" stroke="#232323" stroke-width="3"/>
<path d="M1670.78 919.867V966.138L1630.71 989.273L1590.64 966.138V919.867L1630.71 896.731L1670.78 919.867Z" stroke="#232323" stroke-width="3"/>
<path d="M1590.07 919.867V966.138L1550 989.273L1509.93 966.138V919.867L1550 896.731L1590.07 919.867Z" stroke="#232323" stroke-width="3"/>
<path d="M1752.02 919.867V966.138L1711.95 989.273L1671.88 966.138V919.867L1711.95 896.731L1752.02 919.867Z" stroke="#232323" stroke-width="3"/>
<path d="M1629.78 988.867V1035.14L1589.71 1058.27L1549.64 1035.14V988.867L1589.71 965.731L1629.78 988.867Z" stroke="#232323" stroke-width="3"/>
<path d="M1549.07 988.867V1035.14L1509 1058.27L1468.93 1035.14V988.867L1509 965.731L1549.07 988.867Z" stroke="#232323" stroke-width="3"/>
<path d="M1711.02 988.867V1035.14L1670.95 1058.27L1630.88 1035.14V988.867L1670.95 965.731L1711.02 988.867Z" stroke="#232323" stroke-width="3"/>
<path d="M1791.73 988.867V1035.14L1751.65 1058.27L1711.58 1035.14V988.867L1751.65 965.731L1791.73 988.867Z" stroke="#232323" stroke-width="3"/>
<path d="M50.7822 1057.87V1104.14L10.7109 1127.27L-29.3604 1104.14V1057.87L10.7109 1034.73L50.7822 1057.87Z" stroke="#232323" stroke-width="3"/>
<path d="M132.018 1057.87V1104.14L91.9463 1127.27L51.875 1104.14V1057.87L91.9463 1034.73L132.018 1057.87Z" stroke="#232323" stroke-width="3"/>
<path d="M212.726 1057.87V1104.14L172.654 1127.27L132.583 1104.14V1057.87L172.654 1034.73L212.726 1057.87Z" stroke="#232323" stroke-width="3"/>
<path d="M9.78223 1126.87V1173.14L-30.2891 1196.27L-70.3604 1173.14V1126.87L-30.2891 1103.73L9.78223 1126.87Z" stroke="#232323" stroke-width="3"/>
<path d="M91.0176 1126.87V1173.14L50.9463 1196.27L10.875 1173.14V1126.87L50.9463 1103.73L91.0176 1126.87Z" stroke="#232323" stroke-width="3"/>
<path d="M171.726 1126.87V1173.14L131.654 1196.27L91.583 1173.14V1126.87L131.654 1103.73L171.726 1126.87Z" stroke="#232323" stroke-width="3"/>
<path d="M374.782 1057.87V1104.14L334.711 1127.27L294.64 1104.14V1057.87L334.711 1034.73L374.782 1057.87Z" stroke="#232323" stroke-width="3"/>
<path d="M294.074 1057.87V1104.14L254.003 1127.27L213.932 1104.14V1057.87L254.003 1034.73L294.074 1057.87Z" stroke="#232323" stroke-width="3"/>
<path d="M456.018 1057.87V1104.14L415.946 1127.27L375.875 1104.14V1057.87L415.946 1034.73L456.018 1057.87Z" stroke="#232323" stroke-width="3"/>
<path d="M536.726 1057.87V1104.14L496.654 1127.27L456.583 1104.14V1057.87L496.654 1034.73L536.726 1057.87Z" stroke="#232323" stroke-width="3"/>
<path d="M333.782 1126.87V1173.14L293.711 1196.27L253.64 1173.14V1126.87L293.711 1103.73L333.782 1126.87Z" stroke="#232323" stroke-width="3"/>
<path d="M253.074 1126.87V1173.14L213.003 1196.27L172.932 1173.14V1126.87L213.003 1103.73L253.074 1126.87Z" stroke="#232323" stroke-width="3"/>
<path d="M415.018 1126.87V1173.14L374.946 1196.27L334.875 1173.14V1126.87L374.946 1103.73L415.018 1126.87Z" stroke="#232323" stroke-width="3"/>
<path d="M495.726 1126.87V1173.14L455.654 1196.27L415.583 1173.14V1126.87L455.654 1103.73L495.726 1126.87Z" stroke="#232323" stroke-width="3"/>
<path d="M698.782 1057.87V1104.14L658.711 1127.27L618.64 1104.14V1057.87L658.711 1034.73L698.782 1057.87Z" stroke="#232323" stroke-width="3"/>
<path d="M618.074 1057.87V1104.14L578.003 1127.27L537.932 1104.14V1057.87L578.003 1034.73L618.074 1057.87Z" stroke="#232323" stroke-width="3"/>
<path d="M780.018 1057.87V1104.14L739.946 1127.27L699.875 1104.14V1057.87L739.946 1034.73L780.018 1057.87Z" stroke="#232323" stroke-width="3"/>
<path d="M860.726 1057.87V1104.14L820.654 1127.27L780.583 1104.14V1057.87L820.654 1034.73L860.726 1057.87Z" stroke="#232323" stroke-width="3"/>
<path d="M657.782 1126.87V1173.14L617.711 1196.27L577.64 1173.14V1126.87L617.711 1103.73L657.782 1126.87Z" stroke="#232323" stroke-width="3"/>
<path d="M577.074 1126.87V1173.14L537.003 1196.27L496.932 1173.14V1126.87L537.003 1103.73L577.074 1126.87Z" stroke="#232323" stroke-width="3"/>
<path d="M739.018 1126.87V1173.14L698.946 1196.27L658.875 1173.14V1126.87L698.946 1103.73L739.018 1126.87Z" stroke="#232323" stroke-width="3"/>
<path d="M819.726 1126.87V1173.14L779.654 1196.27L739.583 1173.14V1126.87L779.654 1103.73L819.726 1126.87Z" stroke="#232323" stroke-width="3"/>
<path d="M1022.78 1057.87V1104.14L982.711 1127.27L942.64 1104.14V1057.87L982.711 1034.73L1022.78 1057.87Z" stroke="#232323" stroke-width="3"/>
<path d="M942.074 1057.87V1104.14L902.003 1127.27L861.932 1104.14V1057.87L902.003 1034.73L942.074 1057.87Z" stroke="#232323" stroke-width="3"/>
<path d="M1104.02 1057.87V1104.14L1063.95 1127.27L1023.88 1104.14V1057.87L1063.95 1034.73L1104.02 1057.87Z" stroke="#232323" stroke-width="3"/>
<path d="M1184.73 1057.87V1104.14L1144.65 1127.27L1104.58 1104.14V1057.87L1144.65 1034.73L1184.73 1057.87Z" stroke="#232323" stroke-width="3"/>
<path d="M981.782 1126.87V1173.14L941.711 1196.27L901.64 1173.14V1126.87L941.711 1103.73L981.782 1126.87Z" stroke="#232323" stroke-width="3"/>
<path d="M901.074 1126.87V1173.14L861.003 1196.27L820.932 1173.14V1126.87L861.003 1103.73L901.074 1126.87Z" stroke="#232323" stroke-width="3"/>
<path d="M1063.02 1126.87V1173.14L1022.95 1196.27L982.875 1173.14V1126.87L1022.95 1103.73L1063.02 1126.87Z" stroke="#232323" stroke-width="3"/>
<path d="M1143.73 1126.87V1173.14L1103.65 1196.27L1063.58 1173.14V1126.87L1103.65 1103.73L1143.73 1126.87Z" stroke="#232323" stroke-width="3"/>
<path d="M1346.78 1057.87V1104.14L1306.71 1127.27L1266.64 1104.14V1057.87L1306.71 1034.73L1346.78 1057.87Z" stroke="#232323" stroke-width="3"/>
<path d="M1266.07 1057.87V1104.14L1226 1127.27L1185.93 1104.14V1057.87L1226 1034.73L1266.07 1057.87Z" stroke="#232323" stroke-width="3"/>
<path d="M1428.02 1057.87V1104.14L1387.95 1127.27L1347.88 1104.14V1057.87L1387.95 1034.73L1428.02 1057.87Z" stroke="#232323" stroke-width="3"/>
<path d="M1508.73 1057.87V1104.14L1468.65 1127.27L1428.58 1104.14V1057.87L1468.65 1034.73L1508.73 1057.87Z" stroke="#232323" stroke-width="3"/>
<path d="M1305.78 1126.87V1173.14L1265.71 1196.27L1225.64 1173.14V1126.87L1265.71 1103.73L1305.78 1126.87Z" stroke="#232323" stroke-width="3"/>
<path d="M1225.07 1126.87V1173.14L1185 1196.27L1144.93 1173.14V1126.87L1185 1103.73L1225.07 1126.87Z" stroke="#232323" stroke-width="3"/>
<path d="M1387.02 1126.87V1173.14L1346.95 1196.27L1306.88 1173.14V1126.87L1346.95 1103.73L1387.02 1126.87Z" stroke="#232323" stroke-width="3"/>
<path d="M1467.73 1126.87V1173.14L1427.65 1196.27L1387.58 1173.14V1126.87L1427.65 1103.73L1467.73 1126.87Z" stroke="#232323" stroke-width="3"/>
<path d="M1670.78 1057.87V1104.14L1630.71 1127.27L1590.64 1104.14V1057.87L1630.71 1034.73L1670.78 1057.87Z" stroke="#232323" stroke-width="3"/>
<path d="M1590.07 1057.87V1104.14L1550 1127.27L1509.93 1104.14V1057.87L1550 1034.73L1590.07 1057.87Z" stroke="#232323" stroke-width="3"/>
<path d="M1752.02 1057.87V1104.14L1711.95 1127.27L1671.88 1104.14V1057.87L1711.95 1034.73L1752.02 1057.87Z" stroke="#232323" stroke-width="3"/>
<path d="M1629.78 1126.87V1173.14L1589.71 1196.27L1549.64 1173.14V1126.87L1589.71 1103.73L1629.78 1126.87Z" stroke="#232323" stroke-width="3"/>
<path d="M1549.07 1126.87V1173.14L1509 1196.27L1468.93 1173.14V1126.87L1509 1103.73L1549.07 1126.87Z" stroke="#232323" stroke-width="3"/>
<path d="M1711.02 1126.87V1173.14L1670.95 1196.27L1630.88 1173.14V1126.87L1670.95 1103.73L1711.02 1126.87Z" stroke="#232323" stroke-width="3"/>
<path d="M1791.73 1126.87V1173.14L1751.65 1196.27L1711.58 1173.14V1126.87L1751.65 1103.73L1791.73 1126.87Z" stroke="#232323" stroke-width="3"/>
<mask id="mask0_102_3" style="mask-type:alpha" maskUnits="userSpaceOnUse" x="1102" y="343" width="327" height="374">
<path d="M1224.69 436.97V483.241L1184.62 506.376L1144.55 483.241V436.97L1184.62 413.834L1224.69 436.97Z" stroke="black" stroke-opacity="0.18" stroke-width="3"/>
<path d="M1305.4 436.97V483.241L1265.33 506.376L1225.26 483.241V436.97L1265.33 413.834L1305.4 436.97Z" stroke="black" stroke-opacity="0.18" stroke-width="3"/>
<path d="M1264.78 506.601V552.871L1224.71 576.007L1184.64 552.871V506.601L1224.71 483.465L1264.78 506.601Z" stroke="black" stroke-opacity="0.18" stroke-width="3"/>
<path d="M1184.07 506.601V552.871L1144 576.007L1103.93 552.871V506.601L1144 483.465L1184.07 506.601Z" stroke="black" stroke-opacity="0.18" stroke-width="3"/>
<path d="M1346.02 506.601V552.871L1305.95 576.007L1265.88 552.871V506.601L1305.95 483.465L1346.02 506.601Z" stroke="black" stroke-opacity="0.18" stroke-width="3"/>
<path d="M1426.73 506.601V552.871L1386.65 576.007L1346.58 552.871V506.601L1386.65 483.465L1426.73 506.601Z" stroke="black" stroke-opacity="0.18" stroke-width="3"/>
<path d="M1386.11 576.231V622.502L1346.04 645.637L1305.97 622.502V576.231L1346.04 553.095L1386.11 576.231Z" stroke="black" stroke-opacity="0.18" stroke-width="3"/>
<path d="M1305.4 576.231V622.502L1265.33 645.637L1225.26 622.502V576.231L1265.33 553.095L1305.4 576.231Z" stroke="black" stroke-opacity="0.18" stroke-width="3"/>
<path d="M1345.49 645.862V692.132L1305.42 715.268L1265.35 692.132V645.862L1305.42 622.726L1345.49 645.862Z" stroke="black" stroke-opacity="0.18" stroke-width="3"/>
<path d="M1346.02 367.867V414.138L1305.95 437.273L1265.88 414.138V367.867L1305.95 344.731L1346.02 367.867Z" stroke="black" stroke-opacity="0.18" stroke-width="3"/>
</mask>
<g mask="url(#mask0_102_3)">
<rect x="1059" y="313" width="412" height="435" fill="url(#paint0_radial_102_3)"/>
<rect x="1059.5" y="313.5" width="411" height="434" stroke="black" stroke-opacity="0.18"/>
</g>
<mask id="mask1_102_3" style="mask-type:alpha" maskUnits="userSpaceOnUse" x="617" y="-210" width="327" height="374">
<path d="M779.782 -46.3994V-0.128876L739.711 23.0069L699.64 -0.128876V-46.3994L739.711 -69.5351L779.782 -46.3994Z" stroke="black" stroke-opacity="0.18" stroke-width="3"/>
<path d="M699.074 -46.3994V-0.128876L659.003 23.0069L618.932 -0.128876V-46.3994L659.003 -69.5351L699.074 -46.3994Z" stroke="black" stroke-opacity="0.18" stroke-width="3"/>
<path d="M861.018 -46.3994V-0.128876L820.946 23.0069L780.875 -0.128876V-46.3994L820.946 -69.5351L861.018 -46.3994Z" stroke="black" stroke-opacity="0.18" stroke-width="3"/>
<path d="M941.726 -46.3994V-0.128876L901.654 23.0069L861.583 -0.128876V-46.3994L901.654 -69.5351L941.726 -46.3994Z" stroke="black" stroke-opacity="0.18" stroke-width="3"/>
<path d="M901.108 23.2311V69.5016L861.037 92.6373L820.966 69.5016V23.2311L861.037 0.0953369L901.108 23.2311Z" stroke="black" stroke-opacity="0.18" stroke-width="3"/>
<path d="M820.4 23.2311V69.5016L780.329 92.6373L740.258 69.5016V23.2311L780.329 0.0953369L820.4 23.2311Z" stroke="black" stroke-opacity="0.18" stroke-width="3"/>
<path d="M860.49 92.8615V139.132L820.419 162.268L780.348 139.132V92.8615L820.419 69.7258L860.49 92.8615Z" stroke="black" stroke-opacity="0.18" stroke-width="3"/>
</mask>
<g mask="url(#mask1_102_3)">
<rect x="574" y="-240" width="412" height="435" fill="url(#paint1_radial_102_3)"/>
<rect x="574.5" y="-239.5" width="411" height="434" stroke="black" stroke-opacity="0.18"/>
</g>
<mask id="mask2_102_3" style="mask-type:alpha" maskUnits="userSpaceOnUse" x="50" y="205" width="327" height="374">
<path d="M172.692 298.97V345.241L132.621 368.376L92.5498 345.241L92.5498 298.97L132.621 275.834L172.692 298.97Z" stroke="black" stroke-opacity="0.18" stroke-width="3"/>
<path d="M253.4 298.97V345.241L213.329 368.376L173.258 345.241L173.258 298.97L213.329 275.834L253.4 298.97Z" stroke="black" stroke-opacity="0.18" stroke-width="3"/>
<path d="M212.782 368.601V414.871L172.711 438.007L132.64 414.871L132.64 368.601L172.711 345.465L212.782 368.601Z" stroke="black" stroke-opacity="0.18" stroke-width="3"/>
<path d="M132.074 368.601V414.871L92.0029 438.007L51.9316 414.871L51.9316 368.601L92.0029 345.465L132.074 368.601Z" stroke="black" stroke-opacity="0.18" stroke-width="3"/>
<path d="M294.018 368.601V414.871L253.946 438.007L213.875 414.871L213.875 368.601L253.946 345.465L294.018 368.601Z" stroke="black" stroke-opacity="0.18" stroke-width="3"/>
<path d="M374.726 368.601V414.871L334.654 438.007L294.583 414.871V368.601L334.654 345.465L374.726 368.601Z" stroke="black" stroke-opacity="0.18" stroke-width="3"/>
<path d="M334.108 438.231V484.502L294.037 507.637L253.966 484.502L253.966 438.231L294.037 415.095L334.108 438.231Z" stroke="black" stroke-opacity="0.18" stroke-width="3"/>
<path d="M253.4 438.231V484.502L213.329 507.637L173.258 484.502L173.258 438.231L213.329 415.095L253.4 438.231Z" stroke="black" stroke-opacity="0.18" stroke-width="3"/>
<path d="M293.49 507.862V554.132L253.419 577.268L213.348 554.132L213.348 507.862L253.419 484.726L293.49 507.862Z" stroke="black" stroke-opacity="0.18" stroke-width="3"/>
<path d="M294.018 229.867V276.138L253.946 299.273L213.875 276.138L213.875 229.867L253.946 206.731L294.018 229.867Z" stroke="black" stroke-opacity="0.18" stroke-width="3"/>
</mask>
<g mask="url(#mask2_102_3)">
<rect x="7" y="175" width="412" height="435" fill="url(#paint2_radial_102_3)"/>
<rect x="7.5" y="175.5" width="411" height="434" stroke="black" stroke-opacity="0.18"/>
</g>
<mask id="mask3_102_3" style="mask-type:alpha" maskUnits="userSpaceOnUse" x="414" y="965" width="327" height="374">
<path d="M577.875 1175.4L577.875 1129.13L617.946 1105.99L658.018 1129.13L658.018 1175.4L617.946 1198.54L577.875 1175.4Z" stroke="black" stroke-opacity="0.18" stroke-width="3"/>
<path d="M658.583 1175.4L658.583 1129.13L698.654 1105.99L738.726 1129.13L738.726 1175.4L698.654 1198.54L658.583 1175.4Z" stroke="black" stroke-opacity="0.18" stroke-width="3"/>
<path d="M496.64 1175.4L496.64 1129.13L536.711 1105.99L576.782 1129.13L576.782 1175.4L536.711 1198.54L496.64 1175.4Z" stroke="black" stroke-opacity="0.18" stroke-width="3"/>
<path d="M415.932 1175.4L415.932 1129.13L456.003 1105.99L496.074 1129.13L496.074 1175.4L456.003 1198.54L415.932 1175.4Z" stroke="black" stroke-opacity="0.18" stroke-width="3"/>
<path d="M456.549 1105.77L456.549 1059.5L496.62 1036.36L536.691 1059.5L536.691 1105.77L496.62 1128.9L456.549 1105.77Z" stroke="black" stroke-opacity="0.18" stroke-width="3"/>
<path d="M537.257 1105.77L537.257 1059.5L577.328 1036.36L617.399 1059.5L617.399 1105.77L577.328 1128.9L537.257 1105.77Z" stroke="black" stroke-opacity="0.18" stroke-width="3"/>
<path d="M497.167 1036.14L497.167 989.868L537.238 966.732L577.31 989.868L577.31 1036.14L537.238 1059.27L497.167 1036.14Z" stroke="black" stroke-opacity="0.18" stroke-width="3"/>
</mask>
<g mask="url(#mask3_102_3)">
<rect x="783.657" y="1369" width="412" height="435" transform="rotate(180 783.657 1369)" fill="url(#paint3_radial_102_3)"/>
<rect x="783.157" y="1368.5" width="411" height="434" transform="rotate(180 783.157 1368.5)" stroke="black" stroke-opacity="0.18"/>
</g>
<mask id="mask4_102_3" style="mask-type:alpha" maskUnits="userSpaceOnUse" x="1548" y="964" width="327" height="374">
<path d="M1670.69 1057.97V1104.24L1630.62 1127.38L1590.55 1104.24V1057.97L1630.62 1034.83L1670.69 1057.97Z" stroke="black" stroke-opacity="0.18" stroke-width="3"/>
<path d="M1751.4 1057.97V1104.24L1711.33 1127.38L1671.26 1104.24V1057.97L1711.33 1034.83L1751.4 1057.97Z" stroke="black" stroke-opacity="0.18" stroke-width="3"/>
<path d="M1710.78 1127.6V1173.87L1670.71 1197.01L1630.64 1173.87V1127.6L1670.71 1104.46L1710.78 1127.6Z" stroke="black" stroke-opacity="0.18" stroke-width="3"/>
<path d="M1630.07 1127.6V1173.87L1590 1197.01L1549.93 1173.87V1127.6L1590 1104.46L1630.07 1127.6Z" stroke="black" stroke-opacity="0.18" stroke-width="3"/>
<path d="M1792.02 1127.6V1173.87L1751.95 1197.01L1711.88 1173.87V1127.6L1751.95 1104.46L1792.02 1127.6Z" stroke="black" stroke-opacity="0.18" stroke-width="3"/>
<path d="M1792.02 988.867V1035.14L1751.95 1058.27L1711.88 1035.14V988.867L1751.95 965.731L1792.02 988.867Z" stroke="black" stroke-opacity="0.18" stroke-width="3"/>
</mask>
<g mask="url(#mask4_102_3)">
<rect x="1505" y="934" width="412" height="435" fill="url(#paint4_radial_102_3)"/>
<rect x="1505.5" y="934.5" width="411" height="434" stroke="black" stroke-opacity="0.18"/>
</g>
</g>
<defs>
<radialGradient id="paint0_radial_102_3" cx="0" cy="0" r="1" gradientUnits="userSpaceOnUse" gradientTransform="translate(1265 527.25) rotate(90) scale(168.75 159.828)">
<stop stop-color="#252525"/>
<stop offset="0.5" stop-color="#A1A1A1"/>
<stop offset="1" stop-color="#252525"/>
</radialGradient>
<radialGradient id="paint1_radial_102_3" cx="0" cy="0" r="1" gradientUnits="userSpaceOnUse" gradientTransform="translate(780 -25.75) rotate(90) scale(168.75 159.828)">
<stop stop-color="#252525"/>
<stop offset="0.5" stop-color="#A1A1A1"/>
<stop offset="1" stop-color="#252525"/>
</radialGradient>
<radialGradient id="paint2_radial_102_3" cx="0" cy="0" r="1" gradientUnits="userSpaceOnUse" gradientTransform="translate(213 389.25) rotate(90) scale(168.75 159.828)">
<stop stop-color="#252525"/>
<stop offset="0.5" stop-color="#A1A1A1"/>
<stop offset="1" stop-color="#252525"/>
</radialGradient>
<radialGradient id="paint3_radial_102_3" cx="0" cy="0" r="1" gradientUnits="userSpaceOnUse" gradientTransform="translate(989.657 1583.25) rotate(90) scale(168.75 159.828)">
<stop stop-color="#252525"/>
<stop offset="0.5" stop-color="#A1A1A1"/>
<stop offset="1" stop-color="#252525"/>
</radialGradient>
<radialGradient id="paint4_radial_102_3" cx="0" cy="0" r="1" gradientUnits="userSpaceOnUse" gradientTransform="translate(1711 1148.25) rotate(90) scale(168.75 159.828)">
<stop stop-color="#252525"/>
<stop offset="0.5" stop-color="#A1A1A1"/>
<stop offset="1" stop-color="#252525"/>
</radialGradient>
<clipPath id="clip0_102_3">
<rect width="1728" height="1117" fill="white"/>
</clipPath>
</defs>
</svg>
