<svg width="59" height="76" viewBox="0 0 59 76" fill="none" xmlns="http://www.w3.org/2000/svg">
<path d="M29.3127 3.94703C25.4077 6.66122 21.3106 8.94798 17.0215 10.8073C15.2787 11.5625 13.6328 12.1857 12.0839 12.677C10.1266 13.2983 8.4286 13.769 6.98999 14.0888C5.48957 14.422 4.33516 14.6828 3.52678 14.8713C3.42853 14.894 3.34086 14.9495 3.27812 15.0287C3.21537 15.1079 3.18126 15.2061 3.18137 15.3072C3.20803 25.4988 3.20743 34.6319 3.17955 42.7064C3.1741 43.9121 3.37771 44.9262 3.4886 46.1885C3.50675 46.3911 3.54326 46.5914 3.59768 46.7868C3.87946 47.7863 4.03763 48.598 4.33941 49.4134C4.85207 50.7973 5.55259 52.1623 6.44097 53.5084C7.67354 55.375 8.98974 56.9577 10.3896 58.2564C12.5257 60.241 14.7672 62.1708 17.216 63.9146C18.654 64.9398 20.1338 66.0542 21.6682 67.0392C23.0516 67.9276 24.4969 68.8651 26.3312 69.9559C27.6099 70.7159 28.5249 71.2674 29.0764 71.6103C29.3369 71.772 29.5781 71.8505 29.7999 71.8456C29.859 71.8445 29.9162 71.8247 29.9635 71.7891L30.478 71.3914C30.4889 71.3829 30.4998 71.3756 30.5107 71.3695C32.8316 70.083 34.7866 68.9052 36.3755 67.8363C36.8505 67.5165 37.5777 67.0307 38.557 66.3789C40.5604 65.0437 42.6941 63.4629 44.958 61.6364C45.7216 61.0211 46.5681 60.2848 47.4977 59.4275C48.6406 58.3732 49.452 57.5961 49.932 57.0963C51.1118 55.8651 52.0771 54.4168 52.8752 53.3023C53.1249 52.9533 53.3933 52.5277 53.6806 52.0254C54.366 50.8252 54.5623 50.0281 55.1422 48.3883C55.221 48.1682 55.2919 47.8988 55.3549 47.5802C55.5094 46.7959 55.6858 46.245 55.6985 45.5136C55.7076 44.9901 55.8312 44.3571 55.8312 43.6695C55.8312 32.5853 55.8264 23.4668 55.8167 16.3141C55.8167 16.1609 55.8658 15.9329 55.9639 15.6301C55.9863 15.5593 55.9837 15.4827 55.9567 15.413C55.7312 14.8403 54.9077 14.7363 54.2769 14.594C53.397 14.397 52.6625 14.2371 52.0735 14.1143C51.11 13.9137 50.6446 13.744 49.5284 13.4558C48.5588 13.2029 47.428 12.8612 46.1361 12.4307C45.1035 12.0854 43.9994 11.6646 42.8237 11.1685C38.8448 9.4879 35.032 7.45347 31.3852 5.06518C30.767 4.66024 30.2889 4.23706 29.689 3.92332C29.6299 3.89249 29.5636 3.8784 29.4973 3.88258C29.431 3.88676 29.3671 3.90905 29.3127 3.94703Z" stroke="#2E2E2E" stroke-width="2"/>
<path d="M36.4155 37.6246C36.453 37.5516 36.5021 37.4878 36.5627 37.433C40.418 34.0026 43.2831 31.424 45.158 29.6972C45.6501 29.2449 45.9119 28.9858 45.9434 28.9202C46.1252 28.5468 46.1458 28.1905 46.0052 27.8513C44.8199 24.9997 43.3207 21.4428 41.5076 17.1806C41.4555 17.0583 41.3672 16.9557 41.2549 16.8869C40.7531 16.5829 40.2653 16.5993 39.7914 16.9361C39.4369 17.1897 39.406 17.7934 39.5133 18.1382C39.8805 19.3202 40.5858 20.7812 41.0131 21.8082C42.4699 25.3079 43.2449 27.1666 43.3382 27.3843C43.5564 27.8999 43.4819 28.2915 43.1146 28.559C42.6662 28.8861 42.2056 29.2905 41.733 29.772C41.2785 30.2341 40.8246 30.65 40.3713 31.0197C39.3981 31.8125 38.4504 32.6783 37.528 33.6171C37.0681 34.0859 36.5973 34.3796 36.0937 34.8939C35.9325 35.0581 35.5743 35.3773 35.0193 35.8516C34.3624 36.4122 33.6873 37.07 32.9941 37.8252C32.8539 37.9771 32.6669 38.0771 32.4632 38.1088C32.2596 38.1406 32.0514 38.1024 31.8724 38.0003L31.8397 37.9821C31.7607 37.9373 31.6928 37.8754 31.6409 37.8007C31.589 37.7261 31.5543 37.6407 31.5395 37.5507C31.5247 37.4606 31.5301 37.3683 31.5553 37.2804C31.5805 37.1926 31.6248 37.1113 31.6851 37.0427C32.8729 35.6503 33.9382 34.2124 34.8811 32.7288C35.5137 31.7347 35.9755 30.7242 36.57 29.6097C37.0354 28.7341 36.9008 28.1705 36.1682 27.4317C34.806 26.0601 33.4328 24.6975 32.0487 23.344C31.5567 22.8625 31.0598 22.3487 30.558 21.8027C30.2526 21.4707 30.0138 21.2798 29.8417 21.23C29.2727 21.0658 28.7909 21.5054 28.4037 21.9049C26.1628 24.2153 24.2588 26.1354 22.6917 27.6652C22.556 27.7978 22.3899 28.0927 22.1936 28.5499C22.1618 28.6254 22.1573 28.7093 22.1808 28.787C22.3263 29.2515 22.5753 29.8346 22.928 30.5363C23.7837 32.2399 24.7308 33.7843 25.7695 35.1694C25.967 35.432 26.4737 36.0924 27.2893 37.1503C27.3872 37.2773 27.4325 37.4373 27.4159 37.5972C27.3994 37.7571 27.3221 37.9047 27.2002 38.0094L27.1839 38.024C27.0617 38.1289 26.9042 38.1829 26.7438 38.1747C26.5834 38.1666 26.4325 38.097 26.3222 37.9802C25.2605 36.8566 24.0261 35.8954 22.9535 34.8228C22.9329 34.8021 22.033 33.974 20.2538 32.3384C20.0405 32.1427 19.3164 31.4799 18.0814 30.3502C17.2608 29.5999 16.527 28.9487 15.8798 28.3967C15.6011 28.1583 15.5326 27.878 15.6744 27.5558C16.5494 25.5736 17.5614 23.1853 18.7104 20.3909C19.0097 19.6625 19.2776 19.0338 19.5139 18.5048C19.7102 18.067 19.863 17.1733 19.3557 16.865C18.7849 16.516 18.2838 16.5519 17.8523 16.9726C17.4923 17.3228 17.3214 18.067 17.076 18.5139C16.927 18.7839 16.7597 19.1858 16.5743 19.7196C16.5621 19.7549 16.3531 20.2292 15.9471 21.1424C15.3053 22.5889 14.869 23.7307 14.0673 25.6022C13.6837 26.5051 13.3292 27.6068 13.0365 28.2781C13.0124 28.3329 12.9998 28.3922 12.9995 28.4524C12.9992 28.5127 13.0112 28.5725 13.0347 28.6283C13.1547 28.9165 13.2868 29.133 13.431 29.2777C14.3255 30.1696 15.2872 30.9248 16.2616 31.8605C16.9936 32.5634 17.9632 33.4542 19.1703 34.5328C19.9738 35.2502 20.4792 35.7111 20.6865 35.9154C21.241 36.459 21.6464 36.7545 22.2608 37.3145C22.3711 37.4154 22.4341 37.5261 22.4499 37.6464C22.4574 37.6991 22.4428 37.7531 22.4092 37.7977C22.3755 37.8423 22.3251 37.8743 22.2681 37.8872C21.91 37.9693 21.5755 38.024 21.2591 38.0149C19.1588 37.9456 17.5784 37.9395 16.5179 37.9967C15.6907 38.0404 15.2126 38.6296 14.8145 39.0966C14.1176 39.915 13.0632 41.086 11.6512 42.6097C10.7295 43.6056 10.1223 44.3681 9.0461 45.53C8.59707 46.0134 8.1444 46.7029 8.61161 47.2756C8.90794 47.6386 9.50605 48.0089 9.96417 47.655C10.2605 47.427 10.5223 47.2337 10.7786 46.9491C12.9008 44.5876 14.8266 42.4619 16.5561 40.5722C16.7706 40.3363 16.9851 40.2184 17.1996 40.2184C20.3762 40.2098 22.5875 40.2062 23.8334 40.2074C23.9715 40.2074 24.1376 40.2287 24.3315 40.2713C24.3536 40.276 24.3745 40.2851 24.393 40.2981C24.4114 40.3111 24.4271 40.3278 24.439 40.3471C24.4509 40.3663 24.4588 40.3878 24.4622 40.4102C24.4656 40.4326 24.4644 40.4554 24.4587 40.4774C24.2751 41.2106 23.6098 41.5408 22.9317 42.0114C22.8008 42.1014 22.5469 42.3239 22.1699 42.679C21.1107 43.6749 20.1459 44.5499 19.2758 45.3038C19.0079 45.5361 18.4898 45.9793 17.7214 46.6336C17.3942 46.9126 16.9215 47.4526 16.8197 47.8192C16.0549 50.6003 15.2253 53.4288 14.3309 56.3047C14.1818 56.7838 14.1128 57.12 14.1237 57.3134C14.1982 58.5392 15.8507 58.5994 16.287 57.587C16.4446 57.2222 16.5518 56.9328 16.6088 56.7188C17.1069 54.8619 17.6184 53.1229 18.1432 51.502C18.4577 50.5261 18.6867 49.5593 18.9322 48.7695C19.0082 48.5253 19.1513 48.3083 19.3448 48.1439L21.1519 46.6025C21.1938 46.5667 21.246 46.5454 21.3007 46.5417C21.3555 46.5381 21.4098 46.5524 21.4555 46.5825C21.5949 46.6737 21.7076 46.8099 21.7936 46.9911C22.1269 47.6927 22.4802 48.3445 22.8535 48.9465C24.5212 51.6388 26.4537 54.1268 28.651 56.4105C29.3981 57.1875 30.0053 56.8246 30.6144 56.1825C32.9607 53.7164 34.9835 51.0192 36.6827 48.091C36.9239 47.6751 37.1372 47.2391 37.3226 46.7831C37.3388 46.7433 37.363 46.7072 37.3938 46.6772C37.4246 46.6472 37.4612 46.6239 37.5014 46.6086C37.5417 46.5934 37.5847 46.5866 37.6277 46.5887C37.6707 46.5908 37.7129 46.6017 37.7517 46.6208C38.3661 46.9272 38.9388 47.5875 39.486 48.0636C40.2223 48.7039 40.1932 49.4098 40.4859 50.247C40.6677 50.7663 41.0385 51.9039 41.5985 53.6598C41.7718 54.2034 42.102 55.3641 42.5892 57.1419C42.7547 57.7402 43.0928 58.313 43.7873 58.2619C44.4648 58.2133 44.8484 57.8776 44.938 57.255C44.9476 57.1877 44.9433 57.1194 44.9253 57.0544C44.7599 56.4543 44.6835 56.0457 44.4926 55.4419C43.5485 52.459 42.7892 49.946 42.2147 47.9031C42.0754 47.407 41.8366 47.0148 41.4985 46.7266C40.3495 45.7489 39.5842 45.1232 38.7388 44.3498C37.1402 42.8833 36.1585 42.0169 35.7937 41.7506C35.6968 41.68 35.3889 41.4545 34.8702 41.0738C34.8296 41.0451 34.7965 41.0069 34.7738 40.9626L34.5484 40.5394C34.5357 40.5157 34.5282 40.4896 34.5262 40.4628C34.5242 40.436 34.5279 40.4091 34.537 40.3838C34.5461 40.3585 34.5604 40.3354 34.5789 40.316C34.5975 40.2966 34.6199 40.2814 34.6448 40.2713C34.732 40.2348 34.8241 40.2171 34.9211 40.2184C37.3269 40.2354 39.5629 40.236 41.6294 40.2202C41.9184 40.2184 42.2656 40.3077 42.4474 40.5084C44.9732 43.3089 46.9923 45.5574 48.5049 47.2537C48.6636 47.4325 48.9406 47.624 49.3357 47.8283C49.4173 47.8704 49.5119 47.8789 49.5993 47.852C50.4864 47.5748 51.0918 46.6299 50.3337 45.8073C48.3158 43.6208 46.3397 41.4405 44.4054 39.2662C44.0163 38.8303 43.4309 38.1535 42.9528 38.0824C42.5335 38.0204 41.9772 37.9778 41.2839 37.9547C40.3241 37.9231 39.1036 37.9395 37.6226 38.004C37.1372 38.0258 36.8972 37.962 36.4809 37.7997C36.4644 37.7932 36.4494 37.7832 36.437 37.7706C36.4245 37.758 36.4149 37.7429 36.4087 37.7263C36.4025 37.7098 36.3999 37.6921 36.4011 37.6746C36.4022 37.6571 36.4071 37.64 36.4155 37.6246Z" stroke="#2E2E2E" stroke-width="2"/>
<path d="M28.9946 0.202263C29.3927 -0.0731696 29.7545 -0.0622253 30.1272 0.204087C31.5852 1.24501 32.8966 2.14306 34.0613 2.89822C38.5431 5.80089 43.2256 8.06515 48.1086 9.69099C51.2597 10.7404 54.3678 11.498 57.4329 11.9638C58.3837 12.1079 59 11.9838 59 13.2224C58.9927 30.8974 58.9909 40.3947 58.9945 41.7141C59.0073 45.3768 58.2692 49.3478 56.7694 52.5599C55.4659 55.358 53.4825 57.8479 51.1519 60.1881C48.7207 62.6299 45.7998 65.0498 42.3893 67.4478C38.591 70.1195 34.603 72.6227 30.4253 74.9575C30.0678 75.1569 29.7866 75.2797 29.5818 75.3259C29.508 75.3427 29.4314 75.3395 29.36 75.3168C29.051 75.2195 28.7607 75.0931 28.4892 74.9374C21.9809 71.1908 15.6654 67.063 10.0133 62.1946C7.92146 60.3924 6.07623 58.4145 4.47764 56.2609C2.32639 53.3643 0.954439 50.1449 0.361785 46.6026C0.205441 45.665 0.183625 44.6764 0.076366 43.6713C0.0448547 43.3746 0.0290987 42.9818 0.0290987 42.493C0.0327346 30.5077 0.0230396 20.7186 1.21015e-05 13.1257C-0.00362381 11.9492 0.812638 12.0495 1.65253 11.9218C8.70984 10.842 15.2812 8.54853 21.3665 5.04148C23.9455 3.55427 26.4883 1.94119 28.9946 0.202263ZM29.3128 3.94705C25.4078 6.66124 21.3107 8.94799 17.0215 10.8073C15.2787 11.5625 13.6329 12.1857 12.084 12.677C10.1266 13.2984 8.42867 13.769 6.99006 14.0888C5.48964 14.422 4.33523 14.6828 3.52685 14.8713C3.4286 14.894 3.34093 14.9495 3.27819 15.0287C3.21544 15.1079 3.18133 15.2061 3.18144 15.3073C3.2081 25.4989 3.20749 34.6319 3.17962 42.7064C3.17417 43.9121 3.37778 44.9262 3.48867 46.1885C3.50682 46.3911 3.54333 46.5914 3.59775 46.7868C3.87953 47.7864 4.03769 48.5981 4.33948 49.4134C4.85214 50.7973 5.55266 52.1623 6.44103 53.5084C7.67361 55.375 8.98981 56.9577 10.3896 58.2564C12.5257 60.241 14.7673 62.1709 17.2161 63.9146C18.6541 64.9398 20.1339 66.0543 21.6682 67.0393C23.0517 67.9276 24.497 68.8651 26.3313 69.9559C27.6099 70.7159 28.525 71.2674 29.0764 71.6103C29.337 71.7721 29.5782 71.8505 29.8 71.8456C29.8591 71.8445 29.9163 71.8247 29.9636 71.7891L30.5126 71.4918C30.5235 71.4833 30.5345 71.4759 30.5453 71.4699C32.8663 70.1833 34.7866 68.9053 36.3755 67.8364C36.8506 67.5165 37.5778 67.0307 38.5571 66.379C40.5605 65.0437 42.6941 63.4629 44.9581 61.6364C45.7216 61.0211 46.5682 60.2848 47.4978 59.4275C48.6407 58.3732 49.4521 57.5961 49.932 57.0963C51.1119 55.8651 52.0772 54.4168 52.8753 53.3023C53.125 52.9533 53.3934 52.5277 53.6807 52.0255C54.366 50.8252 54.5624 50.0281 55.1423 48.3883C55.2211 48.1682 55.292 47.8988 55.355 47.5802C55.5095 46.7959 55.6859 46.245 55.6986 45.5136C55.7077 44.9901 55.8313 44.3571 55.8313 43.6695C55.8313 32.5853 55.8265 23.4669 55.8168 16.3141C55.8168 16.1609 55.8658 15.9329 55.964 15.6301C55.9864 15.5593 55.9838 15.4827 55.9567 15.4131C55.7313 14.8403 54.9078 14.7363 54.2769 14.5941C53.3971 14.3971 52.6626 14.2371 52.0736 14.1143C51.1101 13.9137 50.6447 13.744 49.5284 13.4558C48.5589 13.2029 47.4281 12.8612 46.1361 12.4307C45.1035 12.0854 43.9994 11.6646 42.8238 11.1685C38.8449 9.48792 35.032 7.45349 31.3852 5.06519C30.7671 4.66025 30.289 4.23707 29.6891 3.92333C29.63 3.8925 29.5637 3.87841 29.4974 3.88259C29.431 3.88677 29.3672 3.90906 29.3128 3.94705Z" fill="#D4D4D4"/>
<path d="M36.4155 37.6246C36.4071 37.64 36.4022 37.6571 36.4011 37.6746C36.3999 37.6922 36.4025 37.7098 36.4087 37.7263C36.4149 37.7429 36.4245 37.758 36.437 37.7706C36.4494 37.7833 36.4644 37.7932 36.4809 37.7997C36.8972 37.962 37.1372 38.0259 37.6226 38.004C39.1036 37.9395 40.3241 37.9231 41.2839 37.9547C41.9772 37.9778 42.5335 38.0204 42.9528 38.0824C43.431 38.1536 44.0163 38.8303 44.4054 39.2662C46.3397 41.4405 48.3158 43.6209 50.3337 45.8073C51.0918 46.6299 50.4864 47.5748 49.5993 47.8521C49.5119 47.8789 49.4173 47.8704 49.3357 47.8283C48.9406 47.6241 48.6636 47.4325 48.5049 47.2538C46.9923 45.5574 44.9732 43.3089 42.4474 40.5084C42.2656 40.3078 41.9184 40.2184 41.6294 40.2202C39.5629 40.236 37.3269 40.2354 34.9211 40.2184C34.8241 40.2172 34.732 40.2348 34.6448 40.2713C34.6199 40.2814 34.5975 40.2966 34.5789 40.316C34.5604 40.3354 34.5461 40.3585 34.537 40.3838C34.5279 40.4091 34.5242 40.436 34.5262 40.4628C34.5282 40.4896 34.5357 40.5157 34.5484 40.5394L34.7738 40.9626C34.7965 41.007 34.8296 41.0451 34.8702 41.0739C35.3889 41.4545 35.6968 41.6801 35.7937 41.7506C36.1585 42.0169 37.1402 42.8833 38.7388 44.3499C39.5842 45.1233 40.3495 45.7489 41.4985 46.7266C41.8366 47.0148 42.0754 47.407 42.2147 47.9031C42.7892 49.9461 43.5485 52.459 44.4926 55.442C44.6835 56.0457 44.7599 56.4543 44.9253 57.0544C44.9433 57.1194 44.9476 57.1877 44.938 57.2551C44.8484 57.8777 44.4648 58.2133 43.7873 58.2619C43.0928 58.313 42.7547 57.7403 42.5892 57.142C42.102 55.3641 41.7718 54.2034 41.5985 53.6598C41.0385 51.9039 40.6677 50.7663 40.4859 50.247C40.1932 49.4098 40.2223 48.7039 39.486 48.0636C38.9388 47.5876 38.3661 46.9273 37.7517 46.6208C37.7129 46.6018 37.6707 46.5908 37.6277 46.5887C37.5847 46.5867 37.5417 46.5934 37.5014 46.6087C37.4612 46.6239 37.4246 46.6472 37.3938 46.6772C37.363 46.7073 37.3388 46.7433 37.3226 46.7832C37.1372 47.2392 36.9239 47.6751 36.6827 48.091C34.9835 51.0192 32.9607 53.7164 30.6144 56.1825C30.0053 56.8246 29.3981 57.1876 28.651 56.4105C26.4537 54.1268 24.5212 51.6388 22.8535 48.9465C22.4802 48.3446 22.1269 47.6928 21.7936 46.9911C21.7076 46.8099 21.5949 46.6737 21.4555 46.5825C21.4098 46.5525 21.3555 46.5382 21.3007 46.5418C21.246 46.5454 21.1938 46.5667 21.1519 46.6026L19.3448 48.1439C19.1513 48.3083 19.0082 48.5253 18.9322 48.7696C18.6867 49.5594 18.4577 50.5261 18.1432 51.502C17.6184 53.123 17.1069 54.8619 16.6088 56.7188C16.5518 56.9328 16.4446 57.2222 16.287 57.587C15.8507 58.5994 14.1982 58.5392 14.1237 57.3134C14.1128 57.1201 14.1818 56.7838 14.3309 56.3047C15.2253 53.4288 16.0549 50.6003 16.8197 47.8192C16.9215 47.4526 17.3942 46.9127 17.7214 46.6336C18.4898 45.9794 19.0079 45.5361 19.2758 45.3039C20.1459 44.5499 21.1107 43.675 22.1699 42.679C22.5469 42.324 22.8008 42.1014 22.9317 42.0114C23.6098 41.5408 24.2751 41.2107 24.4587 40.4774C24.4644 40.4555 24.4656 40.4326 24.4622 40.4102C24.4588 40.3878 24.4509 40.3663 24.439 40.3471C24.4271 40.3278 24.4114 40.3112 24.393 40.2982C24.3745 40.2851 24.3536 40.276 24.3315 40.2713C24.1376 40.2287 23.9715 40.2074 23.8334 40.2074C22.5875 40.2062 20.3762 40.2099 17.1996 40.2184C16.9851 40.2184 16.7706 40.3363 16.5561 40.5723C14.8266 42.462 12.9008 44.5876 10.7786 46.9492C10.5223 47.2337 10.2605 47.4271 9.96417 47.6551C9.50605 48.0089 8.90794 47.6386 8.61161 47.2757C8.1444 46.7029 8.59707 46.0134 9.0461 45.53C10.1223 44.3681 10.7295 43.6057 11.6512 42.6097C13.0632 41.086 14.1176 39.915 14.8145 39.0966C15.2126 38.6296 15.6907 38.0405 16.5179 37.9967C17.5784 37.9395 19.1588 37.9456 21.2591 38.0149C21.5755 38.0241 21.91 37.9693 22.2681 37.8873C22.3251 37.8743 22.3755 37.8423 22.4092 37.7977C22.4428 37.7531 22.4574 37.6991 22.4499 37.6465C22.4341 37.5261 22.3711 37.4154 22.2608 37.3145C21.6464 36.7545 21.241 36.459 20.6865 35.9154C20.4792 35.7112 19.9738 35.2503 19.1703 34.5328C17.9632 33.4542 16.9936 32.5634 16.2616 31.8606C15.2872 30.9248 14.3255 30.1697 13.431 29.2777C13.2868 29.133 13.1547 28.9166 13.0347 28.6284C13.0112 28.5725 12.9992 28.5127 12.9995 28.4525C12.9998 28.3922 13.0124 28.3329 13.0365 28.2781C13.3292 27.6069 13.6837 26.5052 14.0673 25.6022C14.869 23.7308 15.3053 22.5889 15.9471 21.1424C16.3531 20.2292 16.5621 19.7549 16.5743 19.7197C16.7597 19.1858 16.927 18.7839 17.076 18.514C17.3214 18.0671 17.4923 17.3229 17.8523 16.9726C18.2838 16.5519 18.7849 16.516 19.3557 16.865C19.863 17.1733 19.7102 18.0671 19.5139 18.5049C19.2776 19.0338 19.0097 19.6625 18.7104 20.3909C17.5614 23.1854 16.5494 25.5737 15.6744 27.5558C15.5326 27.8781 15.6011 28.1584 15.8798 28.3967C16.527 28.9488 17.2608 29.6 18.0814 30.3503C19.3164 31.48 20.0405 32.1427 20.2538 32.3385C22.033 33.974 22.9329 34.8022 22.9535 34.8228C24.0261 35.8954 25.2605 36.8567 26.3222 37.9803C26.4325 38.097 26.5834 38.1666 26.7438 38.1748C26.9042 38.1829 27.0617 38.129 27.1839 38.0241L27.2002 38.0095C27.3221 37.9048 27.3994 37.7572 27.4159 37.5973C27.4325 37.4373 27.3872 37.2773 27.2893 37.1503C26.4737 36.0924 25.967 35.4321 25.7695 35.1694C24.7308 33.7843 23.7837 32.24 22.928 30.5363C22.5753 29.8347 22.3263 29.2516 22.1808 28.787C22.1573 28.7094 22.1618 28.6255 22.1936 28.5499C22.3899 28.0927 22.556 27.7978 22.6917 27.6652C24.2588 26.1355 26.1628 24.2154 28.4037 21.9049C28.7909 21.5054 29.2727 21.0658 29.8417 21.23C30.0138 21.2798 30.2526 21.4708 30.558 21.8027C31.0598 22.3487 31.5567 22.8625 32.0487 23.3441C33.4328 24.6975 34.806 26.0601 36.1682 27.4318C36.9008 28.1705 37.0354 28.7341 36.57 29.6097C35.9755 30.7242 35.5137 31.7347 34.8811 32.7288C33.9382 34.2124 32.8729 35.6504 31.6851 37.0427C31.6248 37.1114 31.5805 37.1926 31.5553 37.2805C31.5301 37.3684 31.5247 37.4607 31.5395 37.5507C31.5543 37.6407 31.589 37.7261 31.6409 37.8008C31.6928 37.8754 31.7607 37.9374 31.8397 37.9821L31.8724 38.0003C32.0514 38.1024 32.2596 38.1407 32.4632 38.1089C32.6669 38.0771 32.8539 37.9771 32.9941 37.8252C33.6873 37.0701 34.3624 36.4122 35.0193 35.8516C35.5743 35.3774 35.9325 35.0581 36.0937 34.894C36.5973 34.3796 37.0681 34.0859 37.528 33.6171C38.4504 32.6784 39.3981 31.8125 40.3713 31.0197C40.8246 30.65 41.2785 30.2341 41.733 29.772C42.2056 29.2905 42.6662 28.8862 43.1146 28.559C43.4819 28.2915 43.5564 27.8999 43.3382 27.3843C43.2449 27.1667 42.4699 25.308 41.0131 21.8082C40.5858 20.7813 39.8805 19.3202 39.5133 18.1382C39.406 17.7935 39.4369 17.1897 39.7914 16.9362C40.2653 16.5993 40.7531 16.5829 41.2549 16.8869C41.3672 16.9557 41.4555 17.0584 41.5076 17.1806C43.3207 21.4428 44.8199 24.9997 46.0052 27.8513C46.1458 28.1906 46.1252 28.5469 45.9434 28.9202C45.9119 28.9859 45.6501 29.2449 45.158 29.6972C43.2831 31.424 40.418 34.0026 36.5627 37.4331C36.5021 37.4878 36.453 37.5516 36.4155 37.6246Z" fill="#D4D4D4"/>
</svg>
