<svg width="117" height="149" viewBox="0 0 117 149" fill="none" xmlns="http://www.w3.org/2000/svg">
<path d="M57.7047 7.77008C50.0174 13.1132 41.9519 17.6149 33.5083 21.2751C30.0774 22.7617 26.8374 23.9886 23.7883 24.9557C19.9351 26.179 16.5925 27.1054 13.7604 27.735C10.8067 28.3909 8.53417 28.9044 6.9428 29.2755C6.74938 29.3202 6.5768 29.4294 6.45328 29.5853C6.32976 29.7412 6.26262 29.9345 6.26282 30.1337C6.31531 50.1967 6.31412 68.176 6.25924 84.0713C6.24851 86.4448 6.64933 88.4413 6.86764 90.9262C6.90336 91.3251 6.97524 91.7193 7.08237 92.1039C7.63709 94.0717 7.94844 95.6696 8.54253 97.2747C9.55175 99.9989 10.9308 102.686 12.6796 105.336C15.1061 109.011 17.6971 112.126 20.4528 114.683C24.6579 118.59 29.0706 122.389 33.8912 125.822C36.7221 127.84 39.6352 130.034 42.6558 131.973C45.3792 133.721 48.2244 135.567 51.8354 137.714C54.3525 139.211 56.1538 140.296 57.2394 140.971C57.7524 141.29 58.2272 141.444 58.6638 141.435C58.7801 141.432 58.8928 141.393 58.9859 141.323L59.9987 140.54C60.0201 140.524 60.0417 140.509 60.0631 140.497C64.632 137.965 68.4805 135.646 71.6083 133.542C72.5436 132.912 73.9751 131.956 75.9029 130.673C79.8468 128.044 84.0471 124.932 88.5039 121.337C90.007 120.125 91.6736 118.676 93.5035 116.988C95.7534 114.913 97.3507 113.383 98.2956 112.399C100.618 109.975 102.519 107.124 104.09 104.93C104.581 104.243 105.11 103.405 105.675 102.417C107.024 100.054 107.411 98.4848 108.552 95.2567C108.708 94.8234 108.847 94.2931 108.971 93.6659C109.275 92.1219 109.622 91.0375 109.648 89.5975C109.665 88.567 109.909 87.321 109.909 85.9672C109.909 64.1471 109.899 46.1966 109.88 32.1158C109.88 31.8142 109.977 31.3653 110.17 30.7692C110.214 30.6299 110.209 30.4791 110.156 30.3419C109.712 29.2144 108.091 29.0097 106.849 28.7297C105.117 28.3419 103.671 28.0271 102.511 27.7853C100.615 27.3903 99.6984 27.0563 97.5011 26.489C95.5924 25.9911 93.3663 25.3184 90.823 24.471C88.7902 23.7911 86.6167 22.9628 84.3024 21.9861C76.4696 18.6778 68.9636 14.6728 61.7845 9.97125C60.5677 9.17409 59.6265 8.34102 58.4455 7.7234C58.3292 7.66271 58.1986 7.63497 58.0681 7.6432C57.9375 7.65143 57.8118 7.6953 57.7047 7.77008Z" stroke="#2E2E2E" stroke-width="2"/>
<path d="M71.6872 74.0673C71.7612 73.9237 71.8578 73.798 71.9771 73.6902C79.5666 66.9371 85.2068 61.8609 88.8977 58.4616C89.8664 57.5711 90.3818 57.0612 90.4438 56.9319C90.8017 56.197 90.8422 55.4956 90.5655 54.8277C88.2321 49.2141 85.2808 42.212 81.7115 33.8214C81.6091 33.5808 81.4352 33.3787 81.214 33.2433C80.2263 32.6448 79.266 32.6772 78.3331 33.3403C77.6352 33.8394 77.5744 35.028 77.7855 35.7066C78.5084 38.0335 79.897 40.9097 80.738 42.9313C83.6059 49.8209 85.1316 53.4799 85.3153 53.9085C85.7448 54.9235 85.5981 55.6943 84.8752 56.2209C83.9924 56.8649 83.0857 57.6609 82.1553 58.6088C81.2606 59.5185 80.367 60.3372 79.4747 61.0649C77.5589 62.6258 75.6931 64.3302 73.8775 66.1783C72.972 67.1011 72.0451 67.6792 71.0538 68.6918C70.7365 69.015 70.0314 69.6434 68.9387 70.577C67.6456 71.6806 66.3166 72.9757 64.9519 74.4623C64.6761 74.7613 64.3078 74.9581 63.9069 75.0207C63.506 75.0832 63.0961 75.0079 62.7438 74.807L62.6794 74.7711C62.524 74.683 62.3903 74.5611 62.2881 74.4141C62.1858 74.2672 62.1177 74.099 62.0885 73.9218C62.0594 73.7446 62.07 73.5629 62.1196 73.3899C62.1691 73.2169 62.2565 73.057 62.3752 72.9218C64.7133 70.1808 66.8105 67.3501 68.6667 64.4295C69.9121 62.4725 70.8212 60.4832 71.9914 58.2892C72.9076 56.5657 72.6428 55.4561 71.2005 54.0018C68.5188 51.3015 65.8156 48.6192 63.0909 45.9548C62.1223 45.0068 61.144 43.9954 60.1563 42.9206C59.5551 42.267 59.085 41.8912 58.7462 41.793C57.6261 41.4699 56.6777 42.3353 55.9154 43.1216C51.5039 47.67 47.7557 51.4499 44.6708 54.4614C44.4036 54.7224 44.0767 55.3029 43.6902 56.203C43.6277 56.3517 43.6188 56.5169 43.6651 56.6698C43.9514 57.5843 44.4417 58.7321 45.136 60.1134C46.8204 63.4672 48.685 66.5074 50.7297 69.234C51.1186 69.7511 52.1159 71.051 53.7216 73.1337C53.9143 73.3837 54.0035 73.6987 53.9709 74.0135C53.9382 74.3283 53.7862 74.6188 53.5462 74.8249L53.514 74.8537C53.2735 75.0602 52.9634 75.1664 52.6477 75.1504C52.332 75.1343 52.0349 74.9973 51.8177 74.7675C49.7276 72.5556 47.2976 70.6632 45.1861 68.5518C45.1456 68.5111 43.3741 66.8809 39.8716 63.6611C39.4517 63.2757 38.0261 61.971 35.5949 59.7471C33.9797 58.2701 32.535 56.9882 31.261 55.9014C30.7122 55.4322 30.5774 54.8804 30.8566 54.246C32.5792 50.344 34.5714 45.6424 36.8332 40.1413C37.4225 38.7073 37.9498 37.4697 38.415 36.4284C38.8015 35.5666 39.1021 33.8071 38.1037 33.2002C36.9799 32.5132 35.9934 32.5838 35.144 33.4121C34.4354 34.1015 34.099 35.5666 33.6158 36.4463C33.3224 36.9778 32.9931 37.7689 32.6281 38.8198C32.6042 38.8893 32.1927 39.8229 31.3934 41.6207C30.1301 44.4682 29.2711 46.7161 27.6929 50.4002C26.9378 52.1777 26.2399 54.3465 25.6637 55.668C25.6163 55.7758 25.5915 55.8926 25.5909 56.0111C25.5903 56.1297 25.6138 56.2475 25.6601 56.3574C25.8963 56.9247 26.1564 57.3508 26.4403 57.6357C28.2011 59.3916 30.0943 60.8782 32.0125 62.7203C33.4536 64.104 35.3623 65.8575 37.7386 67.9809C39.3205 69.3932 40.3154 70.3005 40.7233 70.7027C41.8149 71.7728 42.613 72.3545 43.8226 73.4568C44.0397 73.6555 44.1638 73.8734 44.1948 74.1104C44.2095 74.214 44.1809 74.3203 44.1146 74.4081C44.0483 74.4959 43.9491 74.5589 43.8369 74.5844C43.1319 74.746 42.4734 74.8537 41.8507 74.8357C37.716 74.6993 34.6048 74.6873 32.5171 74.7998C30.8888 74.886 29.9475 76.0458 29.1638 76.9651C27.7919 78.5761 25.7162 80.8815 22.9367 83.881C21.1222 85.8416 19.9269 87.3425 17.8082 89.6299C16.9242 90.5814 16.0331 91.9388 16.9529 93.0663C17.5362 93.7809 18.7137 94.5098 19.6155 93.8132C20.1989 93.3643 20.7142 92.9837 21.2188 92.4235C25.3965 87.7746 29.1876 83.5901 32.5923 79.87C33.0146 79.4056 33.4369 79.1734 33.8592 79.1734C40.1126 79.1567 44.4656 79.1495 46.9183 79.1519C47.1903 79.1519 47.5171 79.1938 47.8989 79.2776C47.9424 79.2868 47.9835 79.3048 48.0199 79.3304C48.0563 79.3561 48.0871 79.3888 48.1105 79.4268C48.1339 79.4647 48.1494 79.507 48.1561 79.551C48.1628 79.5951 48.1605 79.6401 48.1494 79.6833C47.7879 81.1268 46.4781 81.7768 45.1432 82.7032C44.8855 82.8803 44.3857 83.3184 43.6437 84.0174C41.5584 85.978 39.6592 87.7004 37.9462 89.1846C37.4189 89.6418 36.3989 90.5144 34.8863 91.8023C34.2421 92.3517 33.3116 93.4146 33.1112 94.1363C31.6057 99.6111 29.9726 105.179 28.2118 110.841C27.9184 111.784 27.7824 112.446 27.8038 112.827C27.9506 115.24 31.2037 115.358 32.0626 113.365C32.3728 112.647 32.5839 112.077 32.6961 111.656C33.6767 108 34.6835 104.577 35.7166 101.386C36.3357 99.4651 36.7867 97.562 37.2698 96.0072C37.4195 95.5263 37.7012 95.0991 38.0822 94.7755L41.6395 91.7413C41.7219 91.6707 41.8248 91.6287 41.9325 91.6216C42.0403 91.6145 42.1472 91.6426 42.2372 91.7018C42.5116 91.8813 42.7334 92.1494 42.9028 92.5061C43.559 93.8874 44.2544 95.1705 44.9893 96.3555C48.2723 101.656 52.0765 106.553 56.4021 111.049C57.873 112.579 59.0683 111.864 60.2672 110.6C64.8863 105.745 68.8683 100.436 72.2133 94.6714C72.6881 93.8527 73.108 92.9945 73.4731 92.0968C73.5049 92.0183 73.5526 91.9474 73.6132 91.8883C73.6737 91.8292 73.7459 91.7832 73.8251 91.7532C73.9043 91.7233 73.9889 91.7099 74.0736 91.714C74.1584 91.7182 74.2414 91.7397 74.3177 91.7772C75.5273 92.3804 76.6546 93.6803 77.7318 94.6175C79.1813 95.8779 79.124 97.2675 79.7002 98.9157C80.0581 99.9379 80.7882 102.177 81.8904 105.634C82.2316 106.704 82.8817 108.989 83.8409 112.489C84.1665 113.667 84.8322 114.794 86.1993 114.694C87.533 114.598 88.2881 113.937 88.4647 112.712C88.4836 112.579 88.475 112.445 88.4396 112.317C88.114 111.135 87.9637 110.331 87.5879 109.142C85.7293 103.27 84.2345 98.3232 83.1036 94.3015C82.8293 93.3248 82.3592 92.5528 81.6936 91.9855C79.4318 90.0608 77.9251 88.8291 76.2609 87.3066C73.114 84.4196 71.1814 82.714 70.4633 82.1897C70.2724 82.0509 69.6664 81.6068 68.6452 80.8575C68.5653 80.801 68.5002 80.7258 68.4556 80.6385L68.0118 79.8054C67.9868 79.7588 67.9719 79.7074 67.968 79.6546C67.9642 79.6018 67.9714 79.5488 67.9893 79.499C68.0072 79.4492 68.0353 79.4038 68.0719 79.3656C68.1084 79.3275 68.1526 79.2975 68.2015 79.2776C68.3733 79.2057 68.5546 79.171 68.7454 79.1734C73.4814 79.2069 77.8833 79.2081 81.9513 79.177C82.5203 79.1734 83.2038 79.3494 83.5617 79.7444C88.5339 85.2575 92.5088 89.6837 95.4863 93.0232C95.7989 93.3751 96.3441 93.7521 97.1218 94.1543C97.2825 94.2371 97.4687 94.2538 97.6408 94.201C99.3872 93.6552 100.579 91.7951 99.0866 90.1757C95.1141 85.8715 91.224 81.5793 87.4161 77.299C86.6502 76.4408 85.4979 75.1086 84.5566 74.9686C83.7311 74.8465 82.636 74.7627 81.2713 74.7172C79.3817 74.655 76.9791 74.6873 74.0636 74.8142C73.108 74.8573 72.6356 74.7316 71.8161 74.412C71.7835 74.3992 71.7541 74.3797 71.7296 74.3548C71.7051 74.3299 71.6861 74.3002 71.6739 74.2676C71.6617 74.235 71.6566 74.2003 71.6589 74.1658C71.6612 74.1313 71.6709 74.0977 71.6872 74.0673Z" stroke="#2E2E2E" stroke-width="2"/>
<path d="M57.0785 0.398187C57.8622 -0.144026 58.5744 -0.122481 59.3081 0.401778C62.1783 2.45094 64.7598 4.21881 67.0526 5.70541C75.8756 11.4196 85.0934 15.877 94.7061 19.0776C100.909 21.1435 107.028 22.6349 113.062 23.5518C114.934 23.8354 116.147 23.5913 116.147 26.0294C116.132 60.8244 116.129 79.5206 116.136 82.1179C116.161 89.3283 114.708 97.1455 111.756 103.469C109.19 108.977 105.285 113.879 100.697 118.486C95.911 123.293 90.161 128.056 83.4472 132.777C75.9698 138.036 68.1191 142.964 59.895 147.561C59.1912 147.953 58.6377 148.195 58.2344 148.286C58.0891 148.319 57.9384 148.313 57.7978 148.268C57.1894 148.076 56.618 147.827 56.0836 147.521C43.2714 140.145 30.8386 132.019 19.7121 122.436C15.5941 118.888 11.9616 114.994 8.81464 110.755C4.57971 105.052 1.8789 98.7147 0.712207 91.7413C0.404429 89.8956 0.361483 87.9494 0.150333 85.9709C0.0883005 85.3868 0.0572834 84.6136 0.0572834 83.6512C0.064441 60.0572 0.0453554 40.7865 2.3823e-05 25.8391C-0.0071338 23.523 1.59975 23.7205 3.25316 23.4692C17.1461 21.3434 30.0823 16.8286 42.0618 9.92462C47.1389 6.99691 52.1445 3.82143 57.0785 0.398187ZM57.7048 7.77013C50.0175 13.1133 41.952 17.6149 33.5084 21.2752C30.0775 22.7618 26.8375 23.9886 23.7884 24.9558C19.9352 26.179 16.5926 27.1055 13.7606 27.7351C10.8068 28.391 8.5343 28.9045 6.94292 29.2755C6.7495 29.3202 6.57692 29.4295 6.4534 29.5853C6.32989 29.7412 6.26274 29.9346 6.26294 30.1337C6.31543 50.1968 6.31424 68.176 6.25937 84.0713C6.24863 86.4449 6.64945 88.4414 6.86776 90.9262C6.90348 91.3251 6.97536 91.7194 7.08249 92.104C7.63721 94.0718 7.94856 95.6697 8.54265 97.2748C9.55187 99.999 10.9309 102.686 12.6798 105.336C15.1062 109.011 17.6972 112.126 20.4529 114.683C24.658 118.59 29.0707 122.389 33.8914 125.822C36.7222 127.84 39.6354 130.034 42.6559 131.973C45.3794 133.722 48.2245 135.567 51.8355 137.715C54.3526 139.211 56.154 140.296 57.2395 140.971C57.7525 141.29 58.2273 141.444 58.6639 141.435C58.7802 141.432 58.8929 141.393 58.986 141.323L60.0668 140.738C60.0883 140.721 60.1098 140.707 60.1312 140.695C64.7002 138.162 68.4806 135.646 71.6085 133.542C72.5437 132.912 73.9753 131.956 75.903 130.673C79.8469 128.044 84.0472 124.932 88.504 121.337C90.0071 120.126 91.6737 118.676 93.5036 116.988C95.7535 114.913 97.3509 113.383 98.2957 112.399C100.618 109.975 102.519 107.124 104.09 104.93C104.581 104.243 105.11 103.405 105.675 102.417C107.024 100.054 107.411 98.4849 108.553 95.2567C108.708 94.8234 108.847 94.2932 108.971 93.666C109.275 92.1219 109.623 91.0375 109.648 89.5976C109.666 88.567 109.909 87.321 109.909 85.9673C109.909 64.1471 109.899 46.1966 109.88 32.1158C109.88 31.8142 109.977 31.3654 110.17 30.7693C110.214 30.6299 110.209 30.4792 110.156 30.342C109.712 29.2145 108.091 29.0098 106.849 28.7297C105.117 28.3419 103.671 28.0271 102.512 27.7853C100.615 27.3903 99.6986 27.0564 97.5012 26.489C95.5925 25.9911 93.3665 25.3184 90.8231 24.471C88.7903 23.7911 86.6168 22.9629 84.3025 21.9862C76.4697 18.6778 68.9637 14.6729 61.7846 9.9713C60.5678 9.17414 59.6266 8.34107 58.4456 7.72345C58.3293 7.66275 58.1988 7.63502 58.0682 7.64325C57.9376 7.65148 57.812 7.69535 57.7048 7.77013Z" fill="url(#paint0_linear_22_3036)"/>
<path d="M57.7047 7.77008C57.8118 7.6953 57.9375 7.65143 58.0681 7.6432C58.1986 7.63497 58.3292 7.66271 58.4455 7.7234C59.6265 8.34102 60.5677 9.17409 61.7845 9.97125C68.9636 14.6728 76.4696 18.6778 84.3024 21.9861C86.6167 22.9628 88.7902 23.7911 90.823 24.471C93.3663 25.3184 95.5924 25.9911 97.5011 26.489C99.6984 27.0563 100.615 27.3903 102.511 27.7853C103.671 28.0271 105.117 28.3419 106.849 28.7297C108.091 29.0097 109.712 29.2144 110.156 30.3419C110.209 30.4791 110.214 30.6299 110.17 30.7692C109.977 31.3653 109.88 31.8142 109.88 32.1158C109.899 46.1966 109.909 64.1471 109.909 85.9672C109.909 87.321 109.665 88.567 109.648 89.5975C109.622 91.0375 109.275 92.1219 108.971 93.6659C108.847 94.2931 108.708 94.8234 108.552 95.2567C107.411 98.4848 107.024 100.054 105.675 102.417C105.11 103.405 104.581 104.243 104.09 104.93C102.519 107.124 100.618 109.975 98.2955 112.399C97.3507 113.383 95.7534 114.913 93.5035 116.988C91.6736 118.676 90.007 120.125 88.5039 121.337C84.0471 124.932 79.8468 128.044 75.9029 130.673C73.9751 131.956 72.5436 132.912 71.6083 133.542C68.4805 135.646 64.9935 138.026 60.4246 140.558C60.4032 140.57 60.0845 140.721 60.0631 140.738L58.9859 141.323C58.8928 141.393 58.7801 141.432 58.6638 141.435C58.2272 141.444 57.7524 141.29 57.2394 140.971C56.1538 140.296 54.3525 139.211 51.8354 137.714C48.2244 135.567 45.3792 133.721 42.6558 131.973C39.6352 130.034 36.7221 127.84 33.8913 125.822C29.0706 122.389 24.6579 118.59 20.4528 114.683C17.6971 112.126 15.1061 109.011 12.6796 105.336C10.9308 102.686 9.55175 99.9989 8.54253 97.2747C7.94844 95.6696 7.63709 94.0717 7.08237 92.1039C6.97524 91.7193 6.90336 91.3251 6.86764 90.9262C6.64933 88.4413 6.24851 86.4448 6.25924 84.0713C6.31412 68.176 6.31531 50.1968 6.26282 30.1337C6.26262 29.9345 6.32976 29.7412 6.45328 29.5853C6.5768 29.4294 6.74938 29.3202 6.9428 29.2755C8.53417 28.9044 10.8067 28.3909 13.7604 27.735C16.5925 27.1054 19.9351 26.179 23.7883 24.9557C26.8374 23.9886 30.0774 22.7617 33.5083 21.2751C41.9519 17.6149 50.0174 13.1132 57.7047 7.77008ZM71.6871 74.0673C71.761 73.9237 71.8577 73.798 71.977 73.6902C79.5664 66.9371 85.2066 61.8609 88.8976 58.4616C89.8662 57.5711 90.3816 57.0612 90.4436 56.9319C90.8015 56.197 90.8421 55.4956 90.5653 54.8277C88.2319 49.2141 85.2806 42.212 81.7113 33.8214C81.6089 33.5808 81.435 33.3787 81.2139 33.2433C80.2261 32.6448 79.2658 32.6772 78.3329 33.3403C77.6351 33.8394 77.5742 35.028 77.7854 35.7066C78.5083 38.0335 79.8969 40.9097 80.7379 42.9313C83.6057 49.8209 85.1315 53.4799 85.3152 53.9085C85.7447 54.9235 85.5979 55.6943 84.875 56.2209C83.9922 56.8649 83.0856 57.6609 82.1551 58.6088C81.2604 59.5185 80.3669 60.3372 79.4746 61.0649C77.5587 62.6257 75.693 64.3302 73.8773 66.1783C72.9719 67.1011 72.045 67.6792 71.0536 68.6918C70.7363 69.015 70.0313 69.6434 68.9386 70.577C67.6454 71.6806 66.3165 72.9757 64.9518 74.4623C64.6759 74.7613 64.3076 74.9581 63.9068 75.0206C63.5059 75.0832 63.096 75.0079 62.7436 74.807L62.6792 74.7711C62.5238 74.683 62.3901 74.5611 62.2879 74.4141C62.1857 74.2672 62.1175 74.099 62.0884 73.9218C62.0592 73.7446 62.0698 73.5629 62.1194 73.3899C62.169 73.2169 62.2563 73.057 62.375 72.9218C64.7132 70.1808 66.8104 67.3501 68.6666 64.4295C69.912 62.4725 70.821 60.4832 71.9913 58.2892C72.9075 56.5657 72.6426 55.4561 71.2004 54.0018C68.5186 51.3015 65.8154 48.6192 63.0908 45.9548C62.1221 45.0068 61.1439 43.9954 60.1562 42.9206C59.5549 42.267 59.0849 41.8912 58.7461 41.793C57.6259 41.4699 56.6775 42.3353 55.9153 43.1216C51.5038 47.67 47.7556 51.4499 44.6706 54.4614C44.4034 54.7224 44.0765 55.3029 43.69 56.203C43.6276 56.3517 43.6187 56.5169 43.665 56.6698C43.9513 57.5843 44.4416 58.7321 45.1359 60.1134C46.8203 63.4672 48.6849 66.5074 50.7296 69.234C51.1185 69.7511 52.1158 71.051 53.7214 73.1337C53.9141 73.3837 54.0034 73.6987 53.9707 74.0135C53.9381 74.3283 53.7861 74.6188 53.5461 74.8249L53.5139 74.8537C53.2734 75.0602 52.9633 75.1664 52.6476 75.1504C52.3319 75.1343 52.0347 74.9973 51.8175 74.7675C49.7275 72.5555 47.2975 70.6632 45.186 68.5518C45.1454 68.5111 43.3739 66.8809 39.8714 63.6611C39.4515 63.2757 38.026 61.971 35.5948 59.7471C33.9795 58.2701 32.5349 56.9882 31.2608 55.9014C30.7121 55.4322 30.5773 54.8804 30.8564 54.246C32.579 50.344 34.5712 45.6424 36.833 40.1413C37.4223 38.7073 37.9496 37.4697 38.4149 36.4284C38.8014 35.5666 39.102 33.8071 38.1035 33.2002C36.9798 32.5132 35.9932 32.5838 35.1438 33.4121C34.4352 34.1015 34.0988 35.5666 33.6157 36.4463C33.3222 36.9778 32.993 37.7689 32.6279 38.8198C32.6041 38.8893 32.1925 39.8229 31.3932 41.6207C30.1299 44.4682 29.271 46.716 27.6927 50.4002C26.9376 52.1777 26.2397 54.3465 25.6636 55.6679C25.6161 55.7758 25.5913 55.8926 25.5907 56.0111C25.5901 56.1297 25.6137 56.2475 25.66 56.3574C25.8962 56.9247 26.1562 57.3508 26.4402 57.6357C28.2009 59.3916 30.0941 60.8782 32.0124 62.7203C33.4534 64.104 35.3621 65.8575 37.7385 67.9809C39.3203 69.3932 40.3152 70.3005 40.7232 70.7027C41.8147 71.7728 42.6128 72.3545 43.8225 73.4568C44.0396 73.6555 44.1636 73.8734 44.1946 74.1104C44.2094 74.214 44.1808 74.3203 44.1144 74.4081C44.0481 74.4959 43.949 74.5589 43.8368 74.5844C43.1317 74.7459 42.4732 74.8537 41.8505 74.8357C37.7158 74.6993 34.6046 74.6873 32.517 74.7998C30.8886 74.886 29.9474 76.0458 29.1636 76.9651C27.7918 78.5761 25.7161 80.8815 22.9365 83.881C21.1221 85.8416 19.9267 87.3425 17.8081 89.6299C16.9241 90.5814 16.033 91.9388 16.9527 93.0663C17.5361 93.7808 18.7135 94.5098 19.6154 93.8132C20.1987 93.3643 20.7141 92.9837 21.2187 92.4235C25.3963 87.7746 29.1875 83.5901 32.5921 79.87C33.0144 79.4056 33.4367 79.1734 33.859 79.1734C40.1124 79.1567 44.4654 79.1495 46.9181 79.1519C47.1901 79.1519 47.517 79.1938 47.8987 79.2775C47.9422 79.2868 47.9834 79.3048 48.0197 79.3304C48.0561 79.3561 48.0869 79.3888 48.1103 79.4268C48.1337 79.4647 48.1493 79.507 48.1559 79.551C48.1626 79.5951 48.1603 79.6401 48.1492 79.6833C47.7878 81.1268 46.4779 81.7768 45.143 82.7032C44.8854 82.8803 44.3855 83.3184 43.6435 84.0174C41.5583 85.978 39.6591 87.7004 37.946 89.1846C37.4188 89.6418 36.3988 90.5144 34.8862 91.8023C34.242 92.3517 33.3115 93.4146 33.1111 94.1363C31.6056 99.6111 29.9725 105.179 28.2117 110.841C27.9182 111.784 27.7822 112.446 27.8037 112.827C27.9504 115.24 31.2036 115.358 32.0625 113.365C32.3726 112.647 32.5838 112.077 32.6959 111.656C33.6765 108 34.6834 104.577 35.7164 101.386C36.3356 99.4651 36.7865 97.562 37.2696 96.0072C37.4193 95.5263 37.7011 95.0991 38.082 94.7755L41.6394 91.7413C41.7218 91.6707 41.8246 91.6287 41.9324 91.6216C42.0401 91.6144 42.147 91.6426 42.237 91.7018C42.5114 91.8813 42.7333 92.1494 42.9027 92.5061C43.5588 93.8874 44.2543 95.1705 44.9891 96.3555C48.2721 101.656 52.0764 106.553 56.402 111.049C57.8729 112.579 59.0682 111.864 60.2671 110.6C64.8861 105.745 68.8682 100.436 72.2132 94.6714C72.688 93.8527 73.1079 92.9945 73.4729 92.0968C73.5048 92.0183 73.5525 91.9474 73.613 91.8883C73.6736 91.8292 73.7457 91.7832 73.8249 91.7532C73.9041 91.7233 73.9887 91.7099 74.0735 91.714C74.1582 91.7182 74.2413 91.7396 74.3175 91.7772C75.5272 92.3804 76.6545 93.6803 77.7317 94.6175C79.1811 95.8779 79.1238 97.2675 79.7 98.9157C80.0579 99.9379 80.788 102.177 81.8903 105.634C82.2315 106.704 82.8816 108.989 83.8407 112.489C84.1664 113.667 84.8321 114.794 86.1992 114.694C87.5329 114.598 88.288 113.937 88.4646 112.712C88.4834 112.579 88.4749 112.445 88.4395 112.317C88.1138 111.135 87.9635 110.331 87.5877 109.142C85.7291 103.27 84.2344 98.3232 83.1035 94.3015C82.8291 93.3248 82.3591 92.5528 81.6934 91.9855C79.4316 90.0608 77.9249 88.8291 76.2608 87.3066C73.1138 84.4196 71.1813 82.714 70.4631 82.1897C70.2723 82.0509 69.6662 81.6068 68.6451 80.8575C68.5651 80.801 68.5001 80.7258 68.4554 80.6385L68.0116 79.8054C67.9867 79.7588 67.9718 79.7074 67.9679 79.6546C67.964 79.6018 67.9712 79.5488 67.9891 79.499C68.007 79.4492 68.0352 79.4038 68.0717 79.3656C68.1083 79.3275 68.1524 79.2975 68.2013 79.2775C68.3731 79.2057 68.5544 79.171 68.7453 79.1734C73.4813 79.2069 77.8832 79.2081 81.9511 79.177C82.5201 79.1734 83.2037 79.3494 83.5616 79.7444C88.5337 85.2575 92.5086 89.6837 95.4862 93.0232C95.7987 93.3751 96.3439 93.7521 97.1217 94.1543C97.2824 94.2371 97.4685 94.2538 97.6406 94.201C99.3871 93.6552 100.579 91.7951 99.0865 90.1757C95.114 85.8715 91.2238 81.5793 87.416 77.299C86.6501 76.4408 85.4977 75.1086 84.5565 74.9686C83.731 74.8465 82.6359 74.7627 81.2711 74.7172C79.3815 74.655 76.9789 74.6873 74.0634 74.8142C73.1079 74.8573 72.6355 74.7316 71.8159 74.412C71.7834 74.3992 71.7539 74.3797 71.7294 74.3548C71.7049 74.3299 71.686 74.3002 71.6738 74.2676C71.6616 74.235 71.6565 74.2003 71.6588 74.1658C71.6611 74.1312 71.6707 74.0977 71.6871 74.0673Z" fill="url(#paint1_linear_22_3036)"/>
<path d="M71.6872 74.0674C71.6709 74.0978 71.6612 74.1313 71.6589 74.1659C71.6566 74.2004 71.6617 74.2351 71.6739 74.2677C71.6861 74.3003 71.7051 74.33 71.7296 74.3549C71.7541 74.3798 71.7835 74.3993 71.8161 74.4121C72.6356 74.7317 73.108 74.8574 74.0636 74.8143C76.9791 74.6874 79.3817 74.6551 81.2713 74.7173C82.636 74.7628 83.7311 74.8466 84.5566 74.9687C85.4979 75.1087 86.6502 76.4409 87.4161 77.2991C91.224 81.5794 95.1141 85.8716 99.0866 90.1758C100.579 91.7952 99.3872 93.6553 97.6408 94.2011C97.4687 94.2539 97.2825 94.2372 97.1218 94.1544C96.3441 93.7522 95.7989 93.3752 95.4863 93.0233C92.5088 89.6838 88.5339 85.2575 83.5617 79.7445C83.2038 79.3495 82.5203 79.1735 81.9513 79.1771C77.8833 79.2082 73.4814 79.207 68.7454 79.1735C68.5546 79.1711 68.3733 79.2058 68.2015 79.2776C68.1526 79.2976 68.1084 79.3276 68.0719 79.3657C68.0353 79.4039 68.0072 79.4493 67.9893 79.4991C67.9714 79.5489 67.9642 79.6019 67.968 79.6547C67.9719 79.7075 67.9868 79.7589 68.0118 79.8055L68.4556 80.6386C68.5002 80.7259 68.5653 80.8011 68.6452 80.8576C69.6664 81.6069 70.2724 82.051 70.4633 82.1898C71.1814 82.7141 73.114 84.4197 76.2609 87.3067C77.9251 88.8292 79.4318 90.0609 81.6936 91.9855C82.3592 92.5529 82.8293 93.3249 83.1036 94.3016C84.2345 98.3233 85.7293 103.27 87.5879 109.142C87.9637 110.331 88.114 111.135 88.4396 112.317C88.475 112.445 88.4836 112.579 88.4647 112.712C88.2881 113.937 87.533 114.598 86.1993 114.694C84.8322 114.794 84.1665 113.667 83.8409 112.489C82.8818 108.989 82.2316 106.704 81.8904 105.634C80.7882 102.177 80.0581 99.938 79.7002 98.9158C79.124 97.2676 79.1813 95.878 77.7318 94.6176C76.6546 93.6804 75.5273 92.3805 74.3177 91.7773C74.2414 91.7397 74.1584 91.7183 74.0736 91.7141C73.9889 91.71 73.9043 91.7234 73.8251 91.7533C73.7459 91.7833 73.6737 91.8293 73.6132 91.8884C73.5526 91.9475 73.5049 92.0184 73.4731 92.0969C73.108 92.9946 72.6881 93.8528 72.2133 94.6715C68.8683 100.436 64.8863 105.746 60.2672 110.6C59.0683 111.864 57.873 112.579 56.4021 111.049C52.0765 106.553 48.2723 101.656 44.9893 96.3556C44.2544 95.1706 43.559 93.8875 42.9028 92.5062C42.7334 92.1495 42.5116 91.8814 42.2372 91.7019C42.1472 91.6427 42.0403 91.6145 41.9325 91.6217C41.8248 91.6288 41.7219 91.6708 41.6395 91.7414L38.0822 94.7756C37.7012 95.0992 37.4195 95.5264 37.2698 96.0073C36.7867 97.5621 36.3357 99.4652 35.7166 101.386C34.6835 104.577 33.6767 108.001 32.6961 111.656C32.5839 112.077 32.3728 112.647 32.0626 113.365C31.2037 115.358 27.9506 115.24 27.8038 112.827C27.7824 112.446 27.9184 111.784 28.2118 110.841C29.9726 105.179 31.6057 99.6112 33.1112 94.1364C33.3116 93.4147 34.2421 92.3518 34.8863 91.8024C36.3989 90.5145 37.4189 89.6419 37.9462 89.1847C39.6592 87.7005 41.5584 85.9781 43.6437 84.0175C44.3857 83.3185 44.8855 82.8804 45.1432 82.7033C46.4781 81.7769 47.7879 81.1269 48.1494 79.6834C48.1605 79.6402 48.1628 79.5952 48.1561 79.5511C48.1494 79.507 48.1339 79.4648 48.1105 79.4268C48.0871 79.3889 48.0563 79.3562 48.0199 79.3305C47.9835 79.3049 47.9424 79.2869 47.8989 79.2776C47.5171 79.1939 47.1903 79.152 46.9183 79.152C44.4656 79.1496 40.1126 79.1568 33.8592 79.1735C33.4369 79.1735 33.0146 79.4057 32.5923 79.8701C29.1876 83.5902 25.3965 87.7747 21.2188 92.4236C20.7142 92.9838 20.1989 93.3644 19.6155 93.8133C18.7137 94.5099 17.5362 93.7809 16.9529 93.0664C16.0331 91.9389 16.9242 90.5815 17.8082 89.63C19.9269 87.3426 21.1222 85.8417 22.9367 83.8811C25.7162 80.8815 27.7919 78.5762 29.1638 76.9652C29.9475 76.0459 30.8888 74.8861 32.5171 74.7999C34.6048 74.6874 37.716 74.6994 41.8507 74.8358C42.4734 74.8538 43.1319 74.746 43.8369 74.5845C43.9491 74.559 44.0483 74.496 44.1146 74.4082C44.1809 74.3204 44.2095 74.2141 44.1948 74.1105C44.1638 73.8735 44.0397 73.6556 43.8226 73.4569C42.613 72.3546 41.8149 71.7729 40.7233 70.7028C40.3154 70.3006 39.3205 69.3933 37.7386 67.9809C35.3623 65.8576 33.4536 64.1041 32.0125 62.7204C30.0943 60.8783 28.2011 59.3917 26.4403 57.6358C26.1564 57.3509 25.8963 56.9248 25.6601 56.3575C25.6138 56.2476 25.5903 56.1298 25.5909 56.0112C25.5915 55.8926 25.6163 55.7759 25.6637 55.668C26.2399 54.3466 26.9378 52.1778 27.6929 50.4003C29.2711 46.7161 30.1301 44.4683 31.3934 41.6208C32.1927 39.823 32.6042 38.8894 32.6281 38.8199C32.9931 37.769 33.3224 36.9779 33.6158 36.4464C34.099 35.5667 34.4354 34.1016 35.144 33.4122C35.9934 32.5839 36.9799 32.5133 38.1037 33.2003C39.1021 33.8072 38.8015 35.5667 38.415 36.4285C37.9498 37.4698 37.4225 38.7074 36.8332 40.1414C34.5714 45.6425 32.5792 50.3441 30.8566 54.2461C30.5774 54.8805 30.7122 55.4322 31.261 55.9014C32.535 56.9883 33.9797 58.2702 35.5949 59.7472C38.0261 61.9711 39.4517 63.2758 39.8716 63.6612C43.3741 66.881 45.1456 68.5112 45.1861 68.5519C47.2976 70.6633 49.7276 72.5556 51.8177 74.7676C52.0349 74.9974 52.332 75.1344 52.6477 75.1505C52.9634 75.1665 53.2735 75.0603 53.514 74.8538L53.5462 74.825C53.7862 74.6189 53.9382 74.3284 53.9709 74.0136C54.0035 73.6988 53.9143 73.3838 53.7216 73.1338C52.1159 71.0511 51.1186 69.7512 50.7297 69.2341C48.685 66.5075 46.8204 63.4673 45.136 60.1135C44.4417 58.7322 43.9514 57.5843 43.6651 56.6699C43.6188 56.517 43.6277 56.3518 43.6902 56.2031C44.0767 55.303 44.4036 54.7225 44.6708 54.4615C47.7557 51.45 51.5039 47.6701 55.9154 43.1217C56.6777 42.3353 57.6261 41.47 58.7462 41.7931C59.085 41.8913 59.5551 42.2671 60.1563 42.9207C61.144 43.9955 62.1223 45.0069 63.0909 45.9549C65.8156 48.6193 68.5188 51.3016 71.2005 54.0019C72.6428 55.4562 72.9076 56.5657 71.9914 58.2893C70.8212 60.4833 69.9121 62.4726 68.6667 64.4296C66.8105 67.3502 64.7133 70.1809 62.3752 72.9219C62.2565 73.057 62.1691 73.217 62.1196 73.39C62.07 73.563 62.0594 73.7447 62.0885 73.9219C62.1177 74.0991 62.1858 74.2673 62.2881 74.4142C62.3903 74.5612 62.5239 74.6831 62.6794 74.7712L62.7438 74.8071C63.0961 75.008 63.506 75.0833 63.9069 75.0207C64.3078 74.9582 64.6761 74.7614 64.9519 74.4624C66.3166 72.9758 67.6456 71.6807 68.9387 70.5771C70.0314 69.6435 70.7365 69.0151 71.0538 68.6919C72.0451 67.6793 72.972 67.1012 73.8775 66.1784C75.6931 64.3303 77.5589 62.6258 79.4747 61.065C80.367 60.3373 81.2605 59.5186 82.1553 58.6089C83.0857 57.6609 83.9924 56.865 84.8752 56.221C85.5981 55.6944 85.7448 54.9235 85.3153 53.9085C85.1316 53.48 83.6059 49.821 80.738 42.9314C79.897 40.9098 78.5084 38.0336 77.7855 35.7067C77.5744 35.028 77.6352 33.8395 78.3331 33.3404C79.266 32.6773 80.2263 32.6449 81.214 33.2434C81.4352 33.3788 81.6091 33.5809 81.7115 33.8215C85.2808 42.2121 88.2321 49.2142 90.5655 54.8278C90.8422 55.4957 90.8017 56.1971 90.4438 56.932C90.3818 57.0613 89.8664 57.5712 88.8977 58.4617C85.2068 61.861 79.5666 66.9372 71.9771 73.6903C71.8578 73.7981 71.7612 73.9237 71.6872 74.0674Z" fill="#181818"/>
<defs>
<linearGradient id="paint0_linear_22_3036" x1="25.1634" y1="4.83484" x2="107" y2="148" gradientUnits="userSpaceOnUse">
<stop stop-color="#181818"/>
<stop offset="0.514423" stop-color="#4C4C4C"/>
<stop offset="1" stop-color="#181818"/>
</linearGradient>
<linearGradient id="paint1_linear_22_3036" x1="45.9999" y1="8" x2="118.5" y2="192.5" gradientUnits="userSpaceOnUse">
<stop stop-color="#434343"/>
<stop offset="1" stop-color="#DADADA"/>
</linearGradient>
</defs>
</svg>
